<?xml version="1.0" encoding="utf-8"?>
<!-- Generator: Adobe Illustrator 28.1.0, SVG Export Plug-In . SVG Version: 6.00 Build 0)  -->
<svg version="1.1" id="Layer_1" xmlns="http://www.w3.org/2000/svg" xmlns:xlink="http://www.w3.org/1999/xlink" x="0px" y="0px"
	 viewBox="0 0 1171.69 459.08" style="enable-background:new 0 0 1171.69 459.08;" xml:space="preserve">
<style type="text/css">
	.st0{fill:#2C2E72;}
</style>
<path class="st0" d="M111.31,172.6c-2.63-1.65-8.02-4.31-24.17-3.12c-18.26,1.35-20.37,5.43-36.64,7.02
	c-11.63,1.13-22.24,2.17-32.74-3.9c-1.94-1.12-12.54-7.48-16.37-19.49c-5.03-15.75,4.78-31.18,10.91-40.54
	C38.06,73.3,82.36,59.99,117.54,49.43c18.39-5.52,33.88-8.25,51.45-4.68c7.33,1.49,21.92,4.46,32.74,15.59
	c12.06,12.41,13.79,29.14,14.03,52.23c0.33,31.57-2.26,60.05-16.37,136.42c-4.25,22.98-7.38,38.61-18.71,56.13
	c-4.88,7.54-15.32,23.25-35.86,34.3c-21.89,11.77-42.26,11.25-48.33,10.91c-6.66-0.37-28.35-2.33-49.11-17.93
	c-10.27-7.72-27.28-20.5-28.06-40.54c-0.12-2.99-0.65-14.47,7.02-24.17c9.25-11.69,24.06-12.83,29.62-13.25
	c11.94-0.92,22.35,2.7,28.06,4.68c10.33,3.58,12.97,6.74,21.05,7.02c2.79,0.1,12.27,0.43,18.71-5.46
	c5.66-5.18,5.93-12.88,6.24-28.06c0.26-13.02,0.39-26.53-6.24-42.09C120.44,182.68,117.78,176.66,111.31,172.6z"/>
<path class="st0" d="M356.86,85.29c-6.69-14.77-13.54-18.85-16.37-20.27c-11.17-5.62-23.21-1.71-42.87,4.68
	c-8.35,2.71-22,7.9-36.64,17.93c-2.23,1.53-12.49,8.69-21.05,21.05c-4.47,6.46-5.78,10.44-4.68,14.03c1.64,5.31,7.87,7.55,8.57,7.8
	c7.27,2.51,11.7-2.06,27.28-5.46c8.98-1.95,15.17-3.22,17.93,0c2.66,3.1,1.03,9.05-0.78,12.47c-2.72,5.14-7.16,7.1-12.47,10.13
	c0,0-4.08,2.33-19.49,14.03c-1.33,1.01-28.95,22.54-24.17,45.99c2.31,11.3,11.1,17.95,13.25,19.49c10.31,7.38,21.84,6.28,30.4,5.46
	c16.77-1.61,28.55-8.79,38.2-14.81c8.75-5.46,22.84-14.26,34.3-30.4C371.72,154.42,369.02,112.11,356.86,85.29z M300.74,185.85
	c-3.92,6.37-11.01,7.55-12.47,7.8c-1.92,0.32-7.56,1.26-9.35-1.56c-1.58-2.5,0.77-6.47,1.56-7.8c2.53-4.27,6.48-6.13,10.13-7.8
	c4.78-2.18,9.49-4.32,11.69-2.34C304.73,176.34,302.85,182.41,300.74,185.85z"/>
<path class="st0" d="M375.57,111.01c-0.35-14.63-1.61-17.96-2.34-34.3c-0.63-13.99-0.09-20.09,3.12-26.5
	c1.99-3.99,3.58-7.17,7.02-8.57c7.56-3.09,13.49,6.75,28.06,9.35c5.21,0.93,10.49,0.1,21.05-1.56c18.11-2.85,19.23-6.23,30.4-7.02
	c14.2-0.99,25.42,3.57,31.96,6.24c8.82,3.59,18.02,7.14,25.72,16.37c5.99,7.18,8.5,14.64,10.13,19.49
	c1.91,5.66,2.57,10.79,3.9,21.05c2.15,16.62,1.6,23.71,0.78,28.84c-1.23,7.7-3.05,10.95-5.46,13.25c-3.94,3.76-8.86,4.43-10.91,4.68
	c-4.36,0.53-9.99-0.04-21.05-6.24c-3.95-2.21-9.54-5.68-28.84-20.27c-6.56-4.96-10.26-7.85-14.81-7.02
	c-4.18,0.76-6.53,4.21-10.13,9.35c0,0-0.7,1-21.05,28.84c-7.84,10.73-11.39,14.27-16.37,17.15c-3.8,2.2-8.63,5-14.03,3.9
	c-9.96-2.03-14.4-15.79-15.59-19.49c-1.31-4.06-1.54-6.8-1.56-31.96C375.56,112.14,375.64,113.68,375.57,111.01z"/>
<path class="st0" d="M615.67,86.85c5.27-5.09,9.5-3.57,17.93-7.02c11.25-4.6,17.72-13.05,20.27-16.37c2.95-3.85,5.75-7.5,7.02-13.25
	c2.03-9.19-1.41-16.73-2.34-18.71c-5.47-11.59-16.68-15.8-20.27-17.15c-12.41-4.67-23.5-1.79-30.4,0
	c-12.65,3.28-20.96,9.57-25.72,13.25c-15.07,11.64-22.12,25.48-25.72,32.74c-4.04,8.15-5.81,15.05-9.35,28.84
	c-1.66,6.46-2.41,10.54-1.56,15.59c1.24,7.35,5.15,12.31,7.8,15.59c7.75,9.61,17.04,13.93,24.17,17.15
	c3.01,1.36,14.67,6.45,33.52,8.57c10.09,1.14,38.4,4.33,45.99-7.02c0.68-1.01,3-4.49,2.34-8.57c-0.61-3.75-3.44-6.22-5.46-7.8
	c-10.14-7.92-19.33-8.58-32.74-16.37c-7.82-4.54-9.85-7.31-10.13-10.13C610.55,91.8,614.41,88.06,615.67,86.85z M610.99,59.57
	c-4.74,2.94-12.28,0.61-13.25-3.12c-0.82-3.13,2.99-7.26,7.02-8.57c3.18-1.04,8.45-0.98,10.13,2.34
	C616.48,53.35,613.99,57.7,610.99,59.57z"/>
<path class="st0" d="M702.2,36.96c0.04-3.28-12.09-2.72-17.93-10.91c-3.41-4.78-4.3-12.02-1.56-17.15c5.35-10,22.52-8.21,26.5-7.8
	c3.54,0.37,21.93,2.29,28.06,16.37c3.44,7.9,1.26,15.57,0.78,17.15c-6.47,21.11-40.54,30.96-47.55,23.39
	c-2.59-2.8-2.19-8.73,0-12.47C694.08,39.44,702.16,39.64,702.2,36.96z"/>
<path class="st0" d="M756.77,54.11c-1.78-7.18,1.3-13.54,3.12-17.15c7.71-15.36,23.45-21.92,38.2-28.06
	c13.74-5.72,23.19-6.67,42.09-8.57c5.17-0.52,11.51-0.95,16.37,3.12c3.78,3.17,5.88,8.41,5.46,13.25
	c-0.63,7.15-6.63,11.73-11.69,15.59c-10.47,7.98-19.45,8.48-19.49,12.47c-0.03,2.4,3.22,2.76,7.8,8.57
	c1.05,1.33,4.74,6.02,5.46,10.13c1.2,6.85-5.58,13.48-13.25,20.27c-16.86,14.92-31.09,24.43-38.98,29.62
	c-16.54,10.88-23.77,14.94-34.3,16.37c-5.55,0.76-13.54,1.73-17.93-3.12c-4.77-5.27-2.82-14.7,0-20.27
	c1.54-3.05,3.69-5.62,13.25-12.47C769,82.31,777.7,79.03,777.05,75.15c-0.39-2.31-3.59-1.84-9.35-6.24
	C765.87,67.54,758.75,62.1,756.77,54.11z"/>
<g>
	<path class="st0" d="M209.97,309.38c1.43-10.2,3.11-20.68,8.4-29.52s15.1-15.75,25.34-14.6c2.75,0.31,5.55,1.25,7.47,3.24
		c1.95,2.01,2.79,4.83,3.44,7.56c1.28,5.4,2.05,10.92,2.31,16.47c0.19,4.05,1.12,9.35,5.14,9.89c2.67,0.36,4.94-1.82,6.74-3.82
		c16.83-18.65,33.5-37.51,51.87-54.64c11.03-10.29,24.8-20.58,39.68-18.11c2.5,0.41,4.99,1.22,6.95,2.83
		c1.82,1.5,3.06,3.6,4.01,5.76c5.87,13.4,1.51,29.12-5.27,42.08s-15.97,24.81-20.47,38.73c-0.84,2.61-1.52,5.36-1.12,8.07
		c0.98,6.58,7.62,10.49,13.32,13.94c10.53,6.37,20.12,14.31,28.34,23.48c6.97,7.77,13.17,16.97,14.05,27.38
		c0.87,10.41-5.24,21.96-15.45,24.16c-5.32,1.15-10.81-0.3-16.06-1.73c-21.01-5.74-42.01-11.47-63.02-17.21
		c-2.1-0.57-4.25-1.15-6.41-0.95c-3.16,0.29-5.92,2.17-8.46,4.08c-13.2,9.89-24.81,21.91-34.24,35.44
		c-4.55,6.53-8.68,13.5-14.65,18.75c-5.98,5.25-14.4,8.56-21.97,6.12c-6.27-2.02-10.85-7.64-13.25-13.78s-2.93-12.82-3.43-19.39
		c-3.18-41.44-6.21-84.21,7.05-123.61"/>
	<g>
		<path class="st0" d="M211.42,309.78c1.78-12.68,3.97-26.73,13.72-35.97c4.11-3.9,9.48-6.84,15.22-7.15c3-0.16,6.41,0.24,8.88,2.1
			c2.55,1.92,3.36,5.2,4.04,8.15c0.83,3.58,1.44,7.21,1.8,10.86c0.3,2.98,0.25,6.02,0.84,8.96c0.46,2.29,1.38,4.7,3.34,6.12
			c2.34,1.69,5.35,1.21,7.59-0.4c2.76-1.99,4.92-4.9,7.18-7.41c2.45-2.72,4.9-5.44,7.35-8.15c4.91-5.43,9.83-10.83,14.83-16.18
			c5.05-5.4,10.17-10.73,15.41-15.94c5.01-4.99,10.07-9.97,15.48-14.53c9.34-7.87,21.93-15.88,34.73-12.56
			c3.44,0.89,5.84,2.87,7.48,6c1.49,2.84,2.4,6.02,2.89,9.18c0.99,6.45,0.02,13.08-1.82,19.28c-3.87,13.03-11.96,24.1-18.55,35.82
			c-3.24,5.77-6.26,11.81-8.09,18.19c-0.89,3.1-1.3,6.43-0.22,9.54c0.9,2.62,2.62,4.85,4.66,6.7c4.39,3.99,9.9,6.62,14.77,9.96
			c5.58,3.82,10.83,8.11,15.71,12.8c9,8.65,18.72,19.55,19.98,32.55c0.98,10.16-5.03,22.41-16.2,23.41
			c-3.6,0.32-7.18-0.41-10.65-1.29c-3.65-0.93-7.27-1.97-10.9-2.96c-7.38-2.01-14.75-4.03-22.13-6.04
			c-7.54-2.06-15.07-4.12-22.61-6.17c-3.67-1-7.33-2.04-11-3c-3.35-0.88-6.58-1.14-9.82,0.26c-2.96,1.27-5.5,3.38-8.02,5.34
			c-2.62,2.05-5.18,4.18-7.67,6.39c-5.08,4.52-9.87,9.38-14.31,14.52c-4.33,5.02-8.3,10.31-12.02,15.8
			c-3.66,5.41-7.27,10.95-12.17,15.35c-4.58,4.11-10.72,7.13-17,6.75c-5.93-0.36-10.79-4.23-13.84-9.13
			c-3.57-5.74-4.64-12.58-5.24-19.2c-0.66-7.24-1.14-14.51-1.63-21.76c-1.92-28.46-2.82-57.44,2.93-85.55
			c1.39-6.78,3.17-13.47,5.37-20.03c0.61-1.83-2.28-2.62-2.89-0.8c-9.37,27.97-10.65,57.79-9.47,87.03
			c0.3,7.38,0.75,14.76,1.26,22.13c0.51,7.31,0.9,14.67,1.74,21.96c0.77,6.65,2.25,13.42,6.17,18.98c3.52,5,8.63,8.66,14.82,9.29
			c6.21,0.64,12.51-1.86,17.41-5.53c5.42-4.05,9.43-9.61,13.21-15.15c3.82-5.62,7.68-11.16,12.06-16.37
			c4.47-5.32,9.29-10.34,14.43-15.01c2.46-2.24,4.99-4.4,7.6-6.48c2.6-2.08,5.31-4.45,8.39-5.79c3.6-1.57,7.14-0.32,10.71,0.65
			c3.85,1.05,7.7,2.1,11.55,3.15c15.23,4.16,30.47,8.32,45.7,12.48c6.83,1.87,14.23,4.47,21.35,2.62c5.22-1.35,9.49-5.1,12.21-9.68
			c2.73-4.59,4.08-10.11,3.71-15.43c-0.45-6.54-2.98-12.75-6.44-18.26c-3.52-5.6-7.94-10.63-12.61-15.3
			c-4.96-4.97-10.33-9.51-16.04-13.6c-2.72-1.95-5.51-3.77-8.37-5.51c-2.45-1.48-4.95-2.96-7.15-4.8c-2.05-1.72-3.97-3.79-4.79-6.39
			c-1.07-3.41,0.02-6.93,1.14-10.18c4.52-13.08,13.04-24.24,19.5-36.37c6.21-11.66,10.83-25.58,7.58-38.83
			c-0.77-3.12-1.94-6.37-3.81-9.01c-1.94-2.74-4.65-4.49-7.87-5.37c-6.28-1.71-13.1-0.81-19.1,1.5
			c-12.89,4.96-23.06,15.29-32.71,24.8c-10.76,10.61-21,21.72-31.13,32.92c-2.56,2.83-5.12,5.67-7.67,8.5
			c-1.17,1.3-2.34,2.6-3.51,3.9c-1.1,1.22-2.18,2.56-3.54,3.51c-2.32,1.64-4.57,0.94-5.66-1.59c-1.1-2.58-1.02-5.5-1.22-8.24
			c-0.28-3.77-0.78-7.53-1.52-11.24c-0.62-3.14-1.24-6.47-2.87-9.27c-3.3-5.67-10.56-6.68-16.5-5.63
			c-12.73,2.26-21.11,13.73-24.87,25.31c-2.07,6.38-3.08,13.03-4.01,19.65c-0.11,0.81,0.2,1.6,1.05,1.85
			C210.27,311.02,211.31,310.58,211.42,309.78L211.42,309.78z"/>
	</g>
</g>
<g>
	<g>
		<path class="st0" d="M211.21,300.96c0.94-5.24,3.32-10,5.72-14.7c0.87-1.72-1.71-3.24-2.59-1.51c-2.5,4.92-5.04,9.94-6.02,15.42
			c-0.14,0.8,0.22,1.62,1.05,1.85C210.09,302.2,211.06,301.76,211.21,300.96L211.21,300.96z"/>
	</g>
</g>
<g>
	<path class="st0" d="M401.63,323.34c-1.87-9.95-1.36-20.35,1.49-30.07c1.24-4.22,2.96-8.39,5.89-11.67s7.23-5.55,11.61-5.19
		c4.26,0.35,7.92,3.03,11.33,5.62c5.99,4.54,12.06,9.16,16.61,15.13c2.2,2.89,4.02,6.06,5.75,9.25
		c8.91,16.42,15.88,33.9,20.71,51.94c1.75,6.52,3.15,13.75,0.09,19.77c-2.88,5.68-9.07,8.86-15.11,10.91
		c-8.8,2.98-18.32,4.36-27.42,2.52s-17.73-7.17-22.29-15.26c-2.42-4.3-3.63-9.17-4.65-14c-3.59-16.93-5.27-34.26-5.02-51.56"/>
	<g>
		<path class="st0" d="M403.08,322.94c-1.94-10.5-1.25-21.61,2.27-31.71c1.57-4.52,4.06-9,8.27-11.54c1.94-1.17,4.13-1.88,6.41-1.81
			c2.42,0.07,4.68,1.08,6.72,2.32c4.12,2.5,7.98,5.7,11.67,8.79c3.86,3.23,7.47,6.78,10.31,10.96c2.96,4.35,5.37,9.1,7.73,13.79
			c2.37,4.71,4.59,9.5,6.63,14.36c4.13,9.82,7.6,19.92,10.37,30.21c1.26,4.67,2.48,9.64,1.77,14.5c-0.67,4.55-3.31,8.2-7.08,10.74
			c-3.78,2.54-8.17,4.07-12.54,5.27c-5.18,1.42-10.53,2.21-15.9,2.04c-9.09-0.28-18.2-3.62-24.48-10.36
			c-3.3-3.54-5.33-7.87-6.66-12.49c-1.47-5.11-2.41-10.41-3.29-15.66c-1.86-11.03-2.89-22.2-3.13-33.38
			c-0.06-2.75-0.06-5.5-0.02-8.25c0.03-1.93-2.97-1.93-3,0c-0.16,11.95,0.59,23.88,2.23,35.72c0.82,5.89,1.85,11.76,3.13,17.56
			c1.14,5.16,2.63,10.37,5.6,14.8c12.01,17.92,37.46,17.91,55.27,9.72c4.16-1.91,8.11-4.68,10.52-8.66
			c2.66-4.4,2.87-9.62,2.17-14.58c-0.76-5.36-2.42-10.62-4.01-15.78c-1.68-5.46-3.56-10.86-5.63-16.18
			c-4.11-10.58-8.88-21.01-14.57-30.84c-2.74-4.74-6.04-9-10.05-12.75c-3.83-3.58-8.04-6.76-12.24-9.88
			c-4-2.97-8.53-5.56-13.69-4.84c-5.02,0.7-9.19,4.04-11.94,8.17c-2.98,4.47-4.53,9.91-5.57,15.13c-1.13,5.63-1.54,11.41-1.19,17.14
			c0.17,2.78,0.53,5.54,1.03,8.28C400.54,325.64,403.43,324.83,403.08,322.94L403.08,322.94z"/>
	</g>
</g>
<g>
	<path class="st0" d="M387.55,241.27c-1-4.51,1.75-9.21,5.6-11.78c3.84-2.57,8.56-3.41,13.15-3.92c2.56-0.28,5.15-0.48,7.71-0.21
		c11.01,1.19,19.56,11.34,21.64,22.21c0.62,3.23,0.72,6.78-0.96,9.61c-1.98,3.32-5.94,4.89-9.73,5.66
		c-9.79,1.99-20.33,0.01-28.73-5.39c-2.1-1.35-4.08-2.91-5.67-4.84c-2.85-3.48-4.28-8.09-3.87-12.57"/>
	<g>
		<path class="st0" d="M388.99,240.87c-0.81-4.04,1.79-8.06,5.08-10.2c3.89-2.53,8.65-3.25,13.18-3.7c4.44-0.44,8.8-0.29,12.87,1.69
			c3.44,1.67,6.4,4.23,8.71,7.26c2.36,3.11,4.07,6.7,5.02,10.48c1.01,4.04,1.37,8.88-2.05,11.9c-3.04,2.67-7.7,3.41-11.58,3.69
			c-4.51,0.33-9.04-0.14-13.39-1.38c-4.74-1.36-9.51-3.64-13.2-6.96c-3.87-3.5-5.85-8.4-5.44-13.61c0.15-1.92-2.85-1.92-3,0
			c-0.4,5.12,1.31,10.25,4.71,14.11c3.39,3.85,8.23,6.5,12.97,8.3c4.78,1.82,9.95,2.72,15.06,2.64c4.72-0.07,10.01-0.75,14.11-3.28
			c8.92-5.5,5.38-18.05,0.81-25.33c-2.37-3.78-5.55-7.1-9.37-9.41c-4.2-2.55-8.93-3.55-13.82-3.3c-5.81,0.3-12.34,1.09-17.28,4.41
			c-4.4,2.95-7.35,8.11-6.28,13.47C386.48,243.56,389.37,242.76,388.99,240.87L388.99,240.87z"/>
	</g>
</g>
<g>
	<path class="st0" d="M462.15,250.06c1.79-3.62,4.33-6.85,7.43-9.44c2.26-1.89,4.8-3.43,7.05-5.33
		c6.46-5.47,10.09-13.52,13.11-21.43s5.72-16.14,10.95-22.8s13.71-11.54,22.01-9.85c8.56,1.74,14.31,9.61,18.77,17.12
		c4.45,7.51,9,15.77,16.95,19.4c6.99,3.19,15.06,2.06,22.72,1.51c7.66-0.55,16.2-0.14,21.73,5.19c3.68,3.54,5.37,8.73,5.77,13.82
		c0.55,7.11-1.21,14.37-4.96,20.44c-4.94,7.99-12.95,13.55-21.04,18.33c-1.09,0.64-2.29,1.42-2.54,2.66
		c-0.3,1.46,0.96,2.88,2.39,3.29s2.96,0.11,4.42-0.21c5.22-1.13,10.44-2.25,15.66-3.38c3.79-0.82,7.76-1.63,11.48-0.54
		c5.5,1.61,9.15,7.2,9.95,12.88s-0.75,11.42-2.76,16.8c-5.19,13.93-13.54,26.68-24.23,37c-8.87,8.56-19.6,15.58-31.64,18.19
		s-25.48,0.36-34.84-7.66c-8.61-7.38-12.89-18.59-15.74-29.57c-2.85-10.98-4.66-22.39-9.77-32.52c-1.21-2.41-2.63-4.75-4.53-6.66
		c-5.94-5.95-15.19-6.53-23.55-7.38c-8.36-0.86-17.81-3.14-21.72-10.58c-3.21-6.11-1.35-13.9,2.76-19.45
		c4.11-5.55,10.11-9.34,15.97-13"/>
	<g>
		<path class="st0" d="M463.45,250.81c2.45-4.86,6.04-8.42,10.42-11.56c4.25-3.05,7.81-6.47,10.64-10.91
			c5.56-8.71,7.87-18.92,12.35-28.14c4.2-8.63,11.6-17.55,22.02-17.83c9.77-0.27,16.27,8.38,20.82,15.91
			c4.69,7.76,9.3,16.78,17.97,20.74c9.74,4.45,20.37,1.07,30.58,1.59c4.46,0.23,9.2,1.21,12.73,4.12c3.77,3.11,5.59,7.97,6.09,12.73
			c1.11,10.56-3.18,20.56-10.74,27.82c-3.66,3.51-7.85,6.41-12.16,9.06c-1.84,1.13-4.35,2.15-5.27,4.24
			c-0.92,2.1,0.27,4.37,2.19,5.41c2.43,1.32,5.37,0.39,7.88-0.16c2.93-0.63,5.85-1.26,8.78-1.89c2.81-0.6,5.61-1.28,8.44-1.77
			c2.79-0.48,5.8-0.66,8.48,0.45c4.04,1.68,6.62,5.77,7.59,9.89c1.28,5.43-0.17,11.14-1.98,16.28c-3.47,9.83-8.64,19.13-15.04,27.35
			c-12.12,15.54-30.18,29.69-50.85,29.08c-9.69-0.28-19.17-3.92-25.79-11.14c-6.7-7.3-10.05-17.02-12.47-26.44
			c-2.75-10.72-4.6-21.8-9.5-31.83c-2.2-4.49-5.1-8.48-9.56-10.93c-4.17-2.29-8.89-3.18-13.55-3.77
			c-8.27-1.06-18.34-0.97-24.65-7.34c-3.24-3.27-4.34-7.9-3.49-12.37c0.93-4.9,3.67-9.05,7.22-12.46c3.61-3.46,7.88-6.12,12.11-8.76
			c1.63-1.02,0.13-3.62-1.51-2.59c-8.58,5.37-17.98,11.57-20.51,22.06c-1.14,4.76-0.65,9.96,2.22,14.03
			c2.53,3.6,6.32,5.89,10.41,7.35c8.95,3.2,18.83,1.87,27.72,5.27c4.98,1.9,8.22,5.55,10.6,10.22c2.61,5.13,4.34,10.66,5.79,16.21
			c2.75,10.55,4.57,21.39,9.18,31.36c4.25,9.21,10.99,16.92,20.47,20.9c9.29,3.9,19.87,4.14,29.51,1.45
			c10.15-2.83,19.26-8.61,27.05-15.61c7.9-7.1,14.64-15.54,19.93-24.74c2.65-4.61,4.93-9.44,6.82-14.41
			c2.06-5.4,3.78-11.22,3.22-17.06c-0.44-4.6-2.38-9.21-5.91-12.3c-4.22-3.69-9.48-3.92-14.77-2.96
			c-6.01,1.09-11.97,2.55-17.94,3.84c-1.27,0.27-2.81,0.75-4.1,0.31c-1.04-0.35-1.75-1.31-0.89-2.22c0.78-0.83,2.02-1.35,2.98-1.94
			c1.11-0.68,2.22-1.36,3.31-2.08c8.77-5.72,16.67-12.99,20.1-23.16c3.13-9.27,2.97-22.14-4.87-29.15
			c-7.72-6.91-18.8-5.43-28.28-4.79c-5.41,0.37-11.19,0.51-16.22-1.83c-4.42-2.06-7.79-5.69-10.55-9.62
			c-5.52-7.86-9.24-17.18-17.12-23.13c-3.79-2.86-8.44-4.52-13.22-4.19c-4.97,0.34-9.59,2.51-13.46,5.56
			c-8.55,6.75-12.19,17.45-15.9,27.27c-1.85,4.9-3.83,9.78-6.62,14.24c-1.37,2.19-2.94,4.25-4.77,6.08
			c-1.96,1.96-4.23,3.5-6.45,5.13c-4.22,3.1-7.69,6.9-10.06,11.6C459.99,251.02,462.58,252.54,463.45,250.81L463.45,250.81z"/>
	</g>
</g>
<g>
	<path class="st0" d="M722.73,260.91c0.19,4.1,5.05,5.97,8.97,7.2c6.66,2.09,13.13,5.21,18.15,10.06s8.47,11.59,8.33,18.57
		c-0.13,6.45-3.26,12.54-7.49,17.42c-4.22,4.87-9.5,8.69-14.73,12.47c-3.56,2.57-7.14,5.15-11.02,7.23
		c-10.43,5.58-22.78,7.23-34.47,5.38s-22.72-7.1-32.06-14.36c-11.09-8.63-20.26-21.08-20.79-35.12c-0.18-4.86,0.67-9.7,1.54-14.49
		c1.42-7.79,2.93-15.65,6.29-22.82c2.47-5.28,5.89-10.06,9.56-14.58c6.84-8.42,14.74-16.16,24.19-21.48s20.61-8.08,31.3-6.25
		c6.22,1.06,12.27,3.73,16.71,8.22c4.43,4.49,7.08,10.9,6.33,17.16c-0.8,6.69-5.15,12.32-9,17.85c-1.54,2.21-2.97,5.43-1.07,7.35"/>
	<g>
		<path class="st0" d="M721.23,260.91c0.44,5.76,6.67,7.5,11.26,9.03c6.08,2.03,11.99,5.01,16.58,9.56
			c4.35,4.32,7.48,10.2,7.6,16.42c0.12,6.54-3.09,12.69-7.34,17.49c-4.52,5.11-10.16,9.05-15.67,13c-5.7,4.09-11.55,7.71-18.3,9.75
			c-12.93,3.9-26.87,2.56-39.25-2.61c-11.49-4.8-22.32-12.76-29.47-23.04c-3.46-4.98-6.06-10.57-7.09-16.57
			c-1.21-7.02,0.25-14.1,1.55-21c1.29-6.87,2.79-13.83,5.83-20.17c2.99-6.23,7.25-11.79,11.75-17c8.66-10.02,19.22-18.89,32.1-22.75
			c12.05-3.61,27.3-2.75,36.19,7.24c4.14,4.65,6.2,11.16,4.66,17.28c-0.79,3.14-2.33,6-4.06,8.72c-1.69,2.65-3.82,5.1-5.29,7.87
			c-1.3,2.46-1.88,5.35,0.12,7.6c1.28,1.45,3.4-0.68,2.12-2.12c-1.92-2.16,1.84-6.29,3.01-7.96c1.94-2.77,3.87-5.59,5.29-8.67
			c2.83-6.11,3.05-12.65,0.24-18.81c-5.74-12.59-20.9-17.23-33.76-15.91c-13.98,1.44-26.33,8.88-36.27,18.5
			c-5.03,4.87-9.64,10.28-13.66,16.02c-4.18,5.97-7.14,12.48-9.01,19.52c-0.94,3.54-1.65,7.13-2.32,10.73
			c-0.73,3.92-1.48,7.85-1.8,11.83c-0.53,6.58,0.61,13,3.24,19.04c5.18,11.87,15.31,21.27,26.3,27.78
			c11.81,6.99,25.62,10.81,39.38,9.49c7.02-0.67,13.89-2.58,20.15-5.85c6.42-3.36,12.38-7.93,18.07-12.39
			c5.35-4.19,10.39-9.07,13.44-15.23c2.99-6.04,3.75-12.83,1.48-19.24c-2.2-6.21-6.54-11.3-11.89-15.06
			c-2.74-1.92-5.72-3.46-8.8-4.75c-2.82-1.18-5.81-1.92-8.62-3.11c-2-0.85-4.57-2.21-4.76-4.65
			C724.08,258.99,721.08,258.98,721.23,260.91L721.23,260.91z"/>
	</g>
</g>
<g>
	<g>
		<path class="st0" d="M724.66,250.53c-0.6,0.84-0.96,1.8-1.33,2.76c-0.4,1.01-0.76,2.03-0.97,3.1c-0.4,1.97-0.75,4.4-0.15,6.36
			c1.17,3.78,5.73,5.77,9.18,6.86c1.85,0.58,2.64-2.31,0.8-2.89c-1.62-0.51-3.16-1.21-4.6-2.12c-1.1-0.7-2.25-1.61-2.56-2.94
			c-0.34-1.46-0.04-3.32,0.29-4.77c0.37-1.63,0.96-3.47,1.94-4.84c0.47-0.66,0.11-1.67-0.54-2.05
			C725.95,249.55,725.13,249.87,724.66,250.53L724.66,250.53z"/>
	</g>
</g>
<g>
	<path class="st0" d="M764.92,295.65c-6.61-34.46-7.71-69.98-3.24-104.78c1.11-8.65,2.8-17.77,8.62-24.27
		c3.13-3.5,7.87-6.1,12.44-5.03c3,0.7,5.44,2.85,7.6,5.04c7.14,7.24,12.87,15.85,16.79,25.23c2.44,5.84,4.29,12.15,8.59,16.79
		c5.72,6.17,14.52,8.11,22.56,10.63c14.26,4.46,27.65,11.67,39.23,21.11c6.26,5.1,12.05,10.92,16.15,17.87
		c4.1,6.95,6.42,15.13,5.47,23.15c-0.3,2.51-0.98,5.11-2.71,6.95c-1.64,1.74-4.03,2.6-6.4,2.94c-6.31,0.93-12.61-1.33-18.66-3.34
		c-10.96-3.63-22.14-6.56-33.47-8.76c-1.59-0.31-3.23-0.61-4.83-0.3c-2.07,0.39-3.82,1.74-5.44,3.08
		c-6.95,5.76-13.26,12.29-18.77,19.43c-3.64,4.71-6.97,9.73-11.41,13.69s-10.3,6.81-16.21,6.1c-5.6-0.68-10.5-4.54-13.35-9.41
		c-2.86-4.87-3.87-10.62-3.93-16.27"/>
	<g>
		<path class="st0" d="M766.37,295.25c-3.31-17.34-5.24-34.94-5.74-52.59c-0.5-17.55,0.34-35.18,2.67-52.59
			c0.96-7.17,2.37-14.69,6.69-20.69c2.09-2.91,5.05-5.47,8.61-6.31c3.74-0.88,6.9,0.99,9.55,3.48c5.65,5.31,10.36,11.73,14.08,18.52
			c1.88,3.44,3.44,7,4.87,10.65c1.35,3.45,2.69,6.94,4.65,10.1c3.9,6.28,10.13,9.71,16.96,12.05c3.45,1.18,6.98,2.12,10.45,3.25
			c3.74,1.22,7.42,2.62,11.01,4.21c7.22,3.21,14.12,7.15,20.56,11.73c6.33,4.5,12.36,9.63,17.28,15.66
			c5.03,6.17,8.86,13.67,9.68,21.68c0.37,3.59,0.47,7.94-1.2,11.25c-1.8,3.58-6.01,4.39-9.68,4.36c-4.32-0.04-8.51-1.35-12.58-2.68
			c-4.17-1.37-8.34-2.73-12.56-3.94c-4.16-1.2-8.35-2.3-12.56-3.3c-4.2-1-8.48-2.08-12.76-2.66c-1.95-0.26-3.81-0.14-5.62,0.68
			c-1.74,0.78-3.22,2.03-4.67,3.25c-3.17,2.66-6.2,5.47-9.09,8.44c-2.83,2.91-5.52,5.96-8.05,9.14c-2.5,3.14-4.8,6.45-7.33,9.57
			c-4.7,5.78-11.13,11.62-19.1,11.3c-7.31-0.29-12.93-6.37-15.21-12.92c-1.27-3.66-1.75-7.5-1.8-11.36c-0.03-1.93-3.03-1.93-3,0
			c0.11,7.86,2.04,16.12,7.85,21.78c2.54,2.47,5.75,4.39,9.23,5.13c3.82,0.81,7.73,0.21,11.29-1.31
			c7.66-3.26,12.63-10.06,17.47-16.51c5.14-6.86,10.88-13.23,17.3-18.92c1.54-1.37,3.09-2.8,4.8-3.96c1.9-1.28,3.75-1.64,6-1.27
			c4.47,0.73,8.91,1.8,13.31,2.87c8.87,2.15,17.47,5.02,26.18,7.69c6.94,2.13,18.13,4.33,22.79-3.16c2.02-3.24,2.28-7.55,2.15-11.27
			c-0.15-4.16-1.06-8.29-2.54-12.18c-2.93-7.64-7.94-14.24-13.8-19.88c-5.88-5.67-12.55-10.61-19.53-14.84
			c-7.05-4.28-14.56-7.82-22.34-10.56c-7.07-2.49-14.78-3.84-21.23-7.82c-3.26-2.01-5.8-4.74-7.69-8.06
			c-1.95-3.44-3.24-7.19-4.72-10.84c-3.06-7.55-7.17-14.58-12.28-20.93c-4.54-5.63-10.58-13.14-18.72-11.35
			c-7.54,1.66-12.3,9.07-14.69,15.87c-2.71,7.72-3.37,16.18-4.17,24.27c-0.9,9.09-1.43,18.22-1.58,27.36
			c-0.3,18.41,0.94,36.83,3.66,55.04c0.67,4.48,1.43,8.94,2.28,13.39C763.84,297.94,766.73,297.14,766.37,295.25L766.37,295.25z"/>
	</g>
</g>
<g>
	<g>
		<path class="st0" d="M765.51,296.49c-0.37-3.11-0.51-6.24-0.41-9.37c0.02-0.79-0.71-1.54-1.5-1.5c-0.83,0.04-1.47,0.66-1.5,1.5
			c-0.1,3.13,0.04,6.26,0.41,9.37c0.09,0.78,0.62,1.54,1.5,1.5C764.74,297.96,765.61,297.32,765.51,296.49L765.51,296.49z"/>
	</g>
</g>
<g>
	<path class="st0" d="M989.67,248.24c-3.04-6.31-8.52-11.25-14.74-14.5s-13.14-4.91-20.1-5.82c-2.56-0.34-5.58-0.89-6.63-3.25
		c-1.04-2.33,0.54-4.93,1.99-7.04c6.87-10.04,12.15-21.07,17.4-32.06c1.63-3.4,3.26-6.83,4.23-10.48
		c3.52-13.25-2.16-27.04-8.05-39.42c-1.41-2.96-3-6.09-5.86-7.68c-1.84-1.03-4.01-1.3-6.13-1.39c-12.63-0.57-25.4,4.55-34.15,13.68
		c-4.22,4.41-7.49,9.62-10.72,14.8c-7.11,11.38-14.22,22.76-21.32,34.13l2.7-3.52c-4.6,7.82-7.41,16.68-8.16,25.72
		c-0.25,3.07-0.26,6.23,0.71,9.15c1.18,3.54,3.69,6.46,6.24,9.17c11.62,12.37,25.38,22.72,40.49,30.44
		c14.91,7.62,31.52,12.74,48.23,11.7c3.75-0.23,7.65-0.84,10.7-3.05C992.61,264.4,992.95,255.04,989.67,248.24z M944.88,174.97
		c-0.3,2.09-1.29,4.02-2.45,5.78c-0.81,1.23-1.71,2.39-2.6,3.56c-1.48,1.92-3.02,3.89-5.14,5.05c-2.11,1.16-4.71,1.39-7,0.63
		c-0.75-0.25-1.47-0.61-2.02-1.17c-1.13-1.16-1.29-2.95-1.1-4.56c0.24-2.02,0.94-3.99,2.04-5.71c0.68-1.06,1.5-2.03,2.35-2.96
		c2.56-2.82,5.36-5.41,8.37-7.74l0.22,0.01c1.85-1.01,4.33-0.37,5.75,1.18C944.72,170.61,945.18,172.88,944.88,174.97z"/>
	<g>
		<path class="st0" d="M990.96,247.49c-3.42-6.96-9.55-12.3-16.47-15.64c-3.95-1.91-8.13-3.26-12.41-4.19
			c-2.12-0.46-4.25-0.82-6.4-1.12c-1.61-0.22-3.39-0.37-4.83-1.18c-3.84-2.17,1-7.43,2.45-9.69c2.5-3.86,4.79-7.86,6.95-11.92
			c2.17-4.07,4.21-8.2,6.21-12.35c1.99-4.13,4.12-8.24,5.73-12.55c3.12-8.35,2.58-17.27,0.17-25.73c-1.23-4.32-2.9-8.51-4.71-12.61
			c-1.62-3.67-3.16-7.68-5.65-10.86c-2.62-3.35-6.31-4.39-10.42-4.56c-3.91-0.16-7.86,0.23-11.69,1.08
			c-7.65,1.71-14.85,5.37-20.73,10.56c-6.53,5.76-10.95,13.44-15.52,20.75c-5.18,8.29-10.35,16.58-15.53,24.86
			c-1.27,2.04-2.54,4.07-3.82,6.11c-1.05,1.69,1.45,3,2.59,1.51c0.9-1.17,1.8-2.35,2.7-3.52c-0.86-0.5-1.73-1.01-2.59-1.51
			c-3.29,5.63-5.72,11.77-7.12,18.14c-1.35,6.16-2.5,13.42,0.11,19.39c1.19,2.72,3.07,5.07,5.05,7.25c2.06,2.28,4.23,4.46,6.45,6.59
			c4.56,4.37,9.4,8.43,14.47,12.2c10.19,7.57,21.38,13.93,33.23,18.51c12.14,4.69,25.66,7.63,38.72,6.18
			c3.28-0.36,6.63-1.12,9.36-3.08c2.27-1.63,3.89-3.89,4.88-6.49C994.12,258.44,993.29,252.42,990.96,247.49
			c-0.82-1.74-3.41-0.22-2.59,1.51c1.91,4.05,2.51,8.93,1.09,13.23c-1.66,5.02-6.15,7.29-11.14,7.93c-12.06,1.55-24.68-1.06-36-5.15
			c-11.2-4.05-21.79-9.86-31.53-16.69c-4.78-3.35-9.36-7-13.71-10.9c-4.28-3.84-8.79-7.91-12.22-12.55
			c-1.95-2.64-3.14-5.53-3.33-8.82c-0.2-3.47,0.25-7.01,0.89-10.41c1.27-6.76,3.7-13.23,7.17-19.17c1-1.72-1.45-3-2.59-1.51
			c-0.9,1.17-1.8,2.35-2.7,3.52c0.86,0.5,1.73,1.01,2.59,1.51c5.05-8.08,10.09-16.15,15.14-24.23c2.46-3.93,4.9-7.87,7.37-11.8
			c2.27-3.6,4.6-7.2,7.36-10.45c5.04-5.94,11.58-10.46,18.95-13.01c3.58-1.24,7.31-2.04,11.09-2.31c3.57-0.26,8.28-0.61,11.28,1.72
			c2.97,2.31,4.42,6.53,5.94,9.84c1.83,3.99,3.53,8.04,4.85,12.23c2.61,8.22,3.63,16.92,0.74,25.21c-1.5,4.31-3.67,8.4-5.65,12.5
			c-1.93,4.01-3.9,8-5.98,11.94c-2.08,3.93-4.27,7.8-6.65,11.55c-1.97,3.11-5.51,6.8-4.89,10.78c0.57,3.6,4.18,4.86,7.34,5.33
			c4.14,0.61,8.24,1.29,12.26,2.5c7.48,2.26,14.7,6.27,19.49,12.6c1.09,1.45,2.03,3,2.83,4.63
			C989.23,250.73,991.81,249.22,990.96,247.49z"/>
		<path class="st0" d="M943.43,174.57c-0.54,3.27-2.56,5.94-4.53,8.5c-1.81,2.36-3.75,4.96-6.8,5.67c-1.41,0.33-2.99,0.25-4.33-0.31
			c-1.38-0.58-1.79-1.78-1.77-3.19c0.04-3.19,1.7-5.99,3.77-8.3c2.62-2.93,5.52-5.6,8.62-8.02c-0.35,0.15-0.71,0.29-1.06,0.44
			c0.76,0.02,1.39-0.46,2.16-0.48c0.87-0.02,1.75,0.34,2.41,0.9c1.48,1.27,1.7,3.37,1.48,5.19c-0.1,0.81,0.76,1.49,1.5,1.5
			c0.89,0.01,1.4-0.7,1.5-1.5c0.57-4.59-2.58-9.79-7.75-9.01c-0.5,0.08-1.12,0.19-1.56,0.47c-0.04,0.02,0.57-0.13,0.26-0.07
			c-0.47,0.09-0.67,0.17-1.06,0.44c-1.11,0.75-2.14,1.71-3.14,2.59c-2.12,1.86-4.15,3.85-5.98,5.99c-1.67,1.95-3,4.11-3.67,6.6
			c-0.58,2.18-0.83,4.78,0.33,6.82c1.25,2.21,3.97,3.04,6.36,3.11c2.47,0.07,4.85-0.78,6.78-2.3c2.25-1.76,3.95-4.21,5.62-6.49
			c1.71-2.33,3.27-4.88,3.75-7.78C946.64,173.48,943.75,172.67,943.43,174.57z"/>
	</g>
</g>
<g>
	<path class="st0" d="M999.28,136.65c1.16-4.28,2.57-8.5,4.24-12.61c0.69-1.7,1.45-3.43,2.79-4.68c1.61-1.5,3.84-2.12,6-2.49
		c7.41-1.29,15.2-0.34,22.08,2.69c4.76,2.1,9.35,5.23,14.56,5.27c4.88,0.04,9.37-2.71,12.99-5.98c3.62-3.28,6.67-7.16,10.48-10.22
		c9.21-7.39,21.65-9.06,33.43-9.89c3.3-0.23,6.66-0.42,9.87,0.37c2.98,0.73,5.7,2.28,8.24,4c13.25,8.99,22.28,22.9,29.99,36.93
		c7.61,13.85,14.41,28.56,16.04,44.29c0.56,5.39,0.32,11.35-3.19,15.48c-3.24,3.81-8.54,5.15-13.53,5.56
		c-20.05,1.61-39.36-8.42-59.47-8.87c-2.21-0.05-4.55,0.05-6.39,1.27c-1.33,0.87-2.25,2.23-3.13,3.54
		c-6.63,9.91-13.06,19.95-19.28,30.12c-3.49,5.7-6.97,11.51-11.67,16.27c-4.7,4.76-10.84,8.45-17.51,8.83
		c-7.92,0.45-15.57-3.86-20.74-9.88s-8.2-13.57-10.53-21.16c-5.72-18.63-7.75-38.39-5.94-57.79c0.61-6.48,1.63-12.99,0.9-19.46
		c-0.59-5.25-2.22-11.05,0.69-15.46"/>
	<g>
		<path class="st0" d="M1000.73,137.05c1.26-4.62,2.69-9.35,4.7-13.71c0.92-1.99,2.14-3.5,4.25-4.27c1.95-0.71,4.09-0.98,6.14-1.15
			c4.66-0.37,9.34,0.13,13.81,1.48c4.3,1.3,8.11,3.65,12.25,5.34c4,1.64,8.25,2.13,12.39,0.66c4.06-1.45,7.47-4.17,10.5-7.18
			c3.22-3.19,6.15-6.75,9.86-9.4c3.4-2.43,7.21-4.16,11.2-5.39c4.12-1.26,8.38-2.03,12.66-2.53c4.43-0.52,9.04-1.08,13.51-0.83
			c4.76,0.26,8.77,2.55,12.57,5.27c3.46,2.49,6.63,5.37,9.54,8.47c5.9,6.26,10.72,13.43,15.07,20.83c4.64,7.89,9,16.04,12.5,24.5
			c3.51,8.48,6.3,17.53,6.95,26.73c0.28,3.98,0.09,8.31-2.1,11.78c-2.13,3.37-5.94,4.96-9.7,5.72c-8.76,1.76-18.14,0.16-26.74-1.71
			c-9.07-1.97-18.01-4.61-27.22-5.89c-2.27-0.32-4.55-0.57-6.84-0.7c-2.24-0.13-4.57-0.25-6.77,0.29c-4.48,1.1-6.65,5.72-8.99,9.26
			c-5.58,8.45-11.02,16.99-16.31,25.63c-4.66,7.6-9.35,15.75-16.98,20.77c-3.44,2.27-7.4,3.87-11.56,4.02
			c-4.1,0.15-8.11-1.04-11.65-3.08c-7.59-4.36-12.33-12.04-15.43-20.02c-3.46-8.89-5.69-18.34-7.16-27.75
			c-1.5-9.65-2.01-19.46-1.59-29.21c0.43-9.84,2.47-19.55,1.05-29.39c-0.57-3.98-1.44-8.44,0.83-12.05
			c1.03-1.64-1.56-3.15-2.59-1.51c-2.42,3.86-1.98,8.4-1.38,12.71c0.72,5.11,0.84,10.04,0.37,15.18c-0.47,5.11-1.08,10.18-1.3,15.31
			c-0.21,5.03-0.17,10.06,0.12,15.08c0.6,10.17,2.21,20.3,4.82,30.15c2.37,8.9,5.35,18.06,11.02,25.46
			c5.17,6.73,12.97,11.96,21.68,12.14c8.91,0.19,16.83-5.22,22.41-11.76c3.12-3.67,5.73-7.73,8.25-11.82
			c2.69-4.38,5.38-8.76,8.13-13.1c2.84-4.49,5.71-8.95,8.63-13.38c1.41-2.14,2.81-4.3,4.26-6.42c1.37-2,2.9-3.27,5.39-3.52
			c4.61-0.46,9.56,0.36,14.09,1.14c4.73,0.82,9.39,1.93,14.05,3.06c9.36,2.27,18.82,4.64,28.5,4.78c7.97,0.12,18.02-1.08,21.9-9.18
			c1.84-3.83,2.08-8.19,1.75-12.36c-0.37-4.7-1.26-9.38-2.48-13.93c-2.51-9.38-6.51-18.31-10.98-26.89
			c-4.2-8.07-8.72-16.05-14.07-23.42c-5.2-7.16-11.23-13.74-18.5-18.85c-3.97-2.8-8.19-4.92-13.1-5.29
			c-4.61-0.35-9.4,0.26-13.98,0.8c-8.67,1.02-17.56,2.96-24.87,7.98c-3.85,2.65-6.93,6.12-10.18,9.43
			c-3.14,3.2-6.68,6.34-11.11,7.55c-4.53,1.24-8.74-0.49-12.76-2.48c-4.27-2.11-8.5-4-13.21-4.88c-4.63-0.86-9.35-0.92-14-0.17
			c-2.1,0.34-4.28,0.87-6.05,2.11c-1.75,1.23-2.86,2.98-3.7,4.91c-1.95,4.48-3.48,9.17-4.77,13.88
			C997.33,138.12,1000.22,138.92,1000.73,137.05L1000.73,137.05z"/>
	</g>
</g>
</svg>
