<?xml version="1.0" encoding="utf-8"?>
<!-- Generator: Adobe Illustrator 28.1.0, SVG Export Plug-In . SVG Version: 6.00 Build 0)  -->
<svg version="1.1" id="Layer_3" xmlns="http://www.w3.org/2000/svg" xmlns:xlink="http://www.w3.org/1999/xlink" x="0px" y="0px"
	 viewBox="0 0 1075.78 312.61" style="enable-background:new 0 0 1075.78 312.61;" xml:space="preserve">
<style type="text/css">
	.st0{fill:#202675;}
</style>
<g>
	<g>
		<path class="st0" d="M249.53,218.09c-7.69-9.18-17.32-16.63-24.62-26.12s-12.13-22.17-8.13-33.46
			c3.27-9.23,11.6-15.52,18.26-22.69c9.53-10.27,16.18-23.48,17.4-37.44c0.8-9.06-0.66-18.18-2.75-27.03
			c-4.85-20.62-13.72-41.26-30.14-54.65c-25.58-20.86-64.43-18.84-93.1-2.49S77.67,58.56,61.66,87.43
			C55,99.44,48.88,111.75,43.34,124.31l2.79-9.9C20.3,153.62,4.84,199.59,1.73,246.44c-0.39,5.9-0.54,12.07,1.95,17.43
			c4.54,9.78,16.37,13.84,27.13,14.57c19.4,1.33,38.86-4.92,55.27-15.37c11.28-7.18,21.68-16.51,34.65-19.77
			c16.99-4.28,34.71,2.74,50.14,11.04c15.43,8.3,30.69,18.25,48.08,20.42s37.81-6.64,41.56-23.76
			C263.04,239.29,257.21,227.27,249.53,218.09z M175.43,106.55c-1.05,4.75-5,8.46-9.46,10.41s-9.42,2.39-14.28,2.63
			c-1.94,0.1-3.96,0.15-5.76-0.57c-5.37-2.16-5.92-9.42-5.6-15.2l2.16-0.93c4.33-7.25,9.34-15.06,17.39-17.61
			c2.19-0.69,4.7-0.91,6.67,0.26c1.41,0.84,2.35,2.26,3.24,3.63C173.22,94.42,176.78,100.43,175.43,106.55z"/>
		<g>
			<path class="st0" d="M250.59,217.03c-10.44-12.4-25.11-22.08-31.23-37.64c-2.79-7.08-3.67-15.12-0.44-22.21
				c3.09-6.79,8.8-11.84,13.98-17.01c11.14-11.11,19.3-25.05,20.95-40.92c0.93-8.9-0.37-17.9-2.32-26.58
				c-1.7-7.58-3.9-15.07-6.8-22.28c-5.6-13.95-13.9-27-25.98-36.2C207.61,5.7,193.92,1.24,180.04,0.23
				c-14.19-1.03-28.65,1.46-41.85,6.71c-13.88,5.51-26.3,14.2-37.11,24.43C89.91,41.94,80.43,54.2,72.07,67.08
				C62.89,81.2,54.9,96.12,47.65,111.31c-1.94,4.05-3.81,8.14-5.63,12.25c0.91,0.39,1.83,0.77,2.74,1.16c0.93-3.3,1.86-6.6,2.79-9.9
				c0.47-1.68-1.83-2.55-2.74-1.16c-9.28,14.12-17.21,29.08-23.75,44.66c-6.58,15.66-11.7,31.94-15.28,48.54
				c-1.77,8.21-3.16,16.5-4.17,24.83c-0.52,4.22-0.93,8.44-1.24,12.68c-0.32,4.27-0.61,8.59-0.06,12.85
				c0.95,7.32,4.83,13.3,11.11,17.15c5.85,3.59,12.82,5.15,19.61,5.6c16.87,1.11,33.77-3.48,48.58-11.38
				c7.31-3.9,13.92-8.84,20.76-13.48c6.66-4.53,13.71-8.76,21.65-10.57c17.07-3.89,34.38,3.68,49.09,11.66
				c14.63,7.94,29.27,17.34,46.05,19.83c12.61,1.88,26.53-1.24,36.1-9.97c4.65-4.24,7.97-9.92,8.96-16.17
				c1.26-7.97-0.97-15.93-4.78-22.92C255.51,223.41,253.16,220.12,250.59,217.03c-1.24-1.49-3.35,0.65-2.12,2.12
				c5.03,6.05,9.2,13.16,10.66,20.97c1.26,6.78-0.07,13.74-4.05,19.38c-7.03,9.97-20.38,14.39-32.16,14.05
				c-16.05-0.47-30.77-9.14-44.41-16.73c-14.28-7.94-29.59-16.07-46.34-16.33c-8.09-0.12-15.82,1.98-22.97,5.69
				c-6.95,3.6-13.2,8.37-19.65,12.77c-13.56,9.26-28.92,16.04-45.38,17.73c-7.36,0.75-15.01,0.71-22.2-1.19
				c-6.1-1.61-12.29-4.69-15.78-10.17c-4.39-6.91-3.26-15.78-2.61-23.52c0.69-8.25,1.77-16.47,3.23-24.63
				c2.88-16.11,7.21-31.97,12.91-47.32c5.73-15.44,12.88-30.36,21.31-44.51c2.06-3.45,4.19-6.85,6.4-10.21
				c-0.91-0.39-1.83-0.77-2.74-1.16c-0.93,3.3-1.86,6.6-2.79,9.9c-0.45,1.59,2.04,2.75,2.74,1.16c7-15.83,14.83-31.32,23.67-46.21
				c7.81-13.15,16.53-25.83,26.86-37.15c10.07-11.04,21.71-20.85,34.99-27.81c12.5-6.55,26.54-10.36,40.65-10.84
				c13.72-0.47,27.67,2.28,39.64,9.19c12.84,7.41,22.18,19.27,28.55,32.48c3.31,6.87,5.84,14.1,7.84,21.46
				c2.25,8.27,4.08,16.8,4.3,25.4c0.41,16.03-6.23,31.32-17.01,43.02c-4.97,5.39-10.71,10.1-14.94,16.14
				c-4.36,6.22-6.07,13.5-4.99,21.01c2.35,16.26,14.95,27.6,25.99,38.56c2.87,2.85,5.68,5.76,8.29,8.85
				C249.71,220.63,251.82,218.5,250.59,217.03z"/>
			<path class="st0" d="M173.98,106.15c-1.59,6.69-8.26,10.01-14.5,11.16c-1.89,0.35-3.81,0.53-5.73,0.66
				c-1.93,0.13-4,0.37-5.92,0.02c-2.71-0.49-4.39-2.49-5.2-5.02c-0.94-2.94-0.95-6.1-0.79-9.16c-0.25,0.43-0.5,0.86-0.74,1.3
				c0.69-0.3,1.52-0.52,2.14-0.92c0.63-0.4,0.95-1.21,1.32-1.83c0.49-0.81,0.99-1.62,1.5-2.41c1.92-3.02,4.01-5.95,6.59-8.45
				c2.52-2.44,5.71-4.58,9.23-5.17c1.91-0.32,3.71,0.01,5.07,1.46c1.34,1.43,2.33,3.29,3.34,4.95
				C172.69,96.73,174.95,101.36,173.98,106.15c-0.38,1.88,2.51,2.69,2.89,0.8c0.95-4.71-0.47-9.24-2.67-13.39
				c-1.09-2.05-2.32-4.03-3.62-5.95c-1.2-1.77-2.62-3.34-4.7-4.02c-3.89-1.28-8.43,0.62-11.65,2.78c-3.36,2.26-6.06,5.32-8.41,8.58
				c-1.33,1.85-2.56,3.78-3.74,5.73c-0.13,0.21-0.26,0.43-0.39,0.64c-0.16,0.27-0.59,0.65,0.03,0.28c-0.19,0.11-0.43,0.18-0.63,0.27
				c-0.5,0.21-1,0.43-1.5,0.64c-0.49,0.21-0.72,0.81-0.74,1.3c-0.31,5.78,0.13,13.85,6.34,16.49c2,0.85,4.16,0.89,6.29,0.79
				c2.21-0.1,4.42-0.26,6.61-0.55c4.1-0.55,8.23-1.63,11.71-3.97c3.4-2.29,6.13-5.58,7.09-9.63
				C177.32,105.07,174.43,104.27,173.98,106.15z"/>
		</g>
	</g>
	<g>
		<path class="st0" d="M401.6,240.05c-0.99-9.17-8.15-16.65-16.25-21.04s-17.26-6.37-26.01-9.27c-7.91-2.61-16.92-8.04-16.38-16.36
			c0.32-4.94,4.06-8.9,7.65-12.31c11.45-10.89,23.89-21.33,31.31-35.28c7.42-13.95,8.51-32.75-2.18-44.38
			c-5.03-5.48-12.06-8.75-19.23-10.72c-17.47-4.79-36.83-2.28-52.5,6.82c-11.38,6.61-20.7,16.64-26.68,28.35l1.87-4.9
			c-13.44,11.16-15.3,30.82-15.28,48.29c0.03,18.12,1.09,36.73,8.44,53.29c14.39,32.42,51.97,50.93,87.36,48.45
			c9.11-0.64,18.41-2.59,25.93-7.77C397.16,258.06,402.58,249.13,401.6,240.05z M336.6,144.76c-0.21,1.96-0.6,3.95-1.67,5.6
			c-2.46,3.79-8.39,4.5-11.92,1.67s-4.27-8.4-1.95-12.28l1.22,2c1.72-3.92,4.59-8.54,8.83-8
			C335.64,134.33,337.09,140.23,336.6,144.76z"/>
		<g>
			<path class="st0" d="M403.1,240.05c-1.15-9.79-8.31-17.52-16.67-22.16c-4.98-2.76-10.41-4.61-15.83-6.27
				c-5.02-1.54-10.26-2.74-15.04-4.96c-3.79-1.76-7.74-4.19-9.86-7.92c-2.42-4.26-0.92-8.86,2-12.44c3.32-4.07,7.52-7.5,11.35-11.08
				c3.89-3.65,7.75-7.34,11.38-11.26c6.89-7.44,13.08-15.84,16.26-25.56c2.87-8.77,3.52-18.71,0.4-27.5
				c-7.23-20.32-32.67-25.72-51.82-23.7c-10.62,1.12-21,4.55-30.05,10.26c-8.54,5.39-15.84,12.67-21.37,21.1
				c-1.38,2.11-2.65,4.3-3.8,6.55c0.91,0.39,1.83,0.77,2.74,1.16c0.62-1.63,1.24-3.26,1.87-4.9c0.59-1.54-1.48-2.32-2.51-1.46
				c-13.45,11.29-15.54,30.33-15.71,46.77c-0.21,20.08,0.86,41.24,10,59.53c7.35,14.72,19.7,26.55,34.04,34.44
				c14.56,8.02,31.27,12.24,47.89,12.07c9.46-0.1,19.3-1.4,27.83-5.7c8.05-4.06,14.87-11.45,16.6-20.5
				C403.19,244.39,403.31,242.22,403.1,240.05c-0.19-1.9-3.19-1.92-3,0c0.86,8.73-4.17,17.03-11.21,21.89
				c-7.75,5.35-17.36,7.15-26.6,7.65c-15.84,0.85-31.93-2.44-46.19-9.4c-14.12-6.89-26.57-17.41-34.62-30.99
				c-9.92-16.74-11.8-36.6-12.03-55.67c-0.1-8.51-0.02-17.1,1.47-25.5c1.38-7.79,3.98-15.67,9.14-21.82
				c1.28-1.52,2.69-2.91,4.21-4.19c-0.84-0.49-1.67-0.97-2.51-1.46c-0.62,1.63-1.24,3.26-1.87,4.9c-0.6,1.59,1.97,2.66,2.74,1.16
				c9.38-18.24,26.42-31.45,46.58-35.49c10.26-2.06,21.01-1.74,31.1,1.07c9.42,2.62,18.33,7.67,22.74,16.75
				c3.94,8.12,3.79,17.79,1.44,26.34c-2.65,9.63-8.44,17.96-15.06,25.31c-3.47,3.86-7.2,7.48-10.97,11.05
				c-3.72,3.52-7.63,6.89-11.16,10.59c-3.26,3.42-6.19,7.68-5.83,12.62c0.3,4.2,2.77,7.74,5.98,10.33c7.8,6.3,18.31,7.8,27.54,10.99
				c9.31,3.22,18.79,8.33,23.27,17.58c0.95,1.96,1.59,4.11,1.85,6.28C400.32,241.95,403.32,241.97,403.1,240.05z"/>
			<path class="st0" d="M335.1,144.76c-0.29,2.59-1.01,5.27-3.43,6.62c-1.81,1.02-4.09,1.15-6.04,0.43
				c-4.43-1.63-5.46-7.53-3.28-11.3c-0.86,0-1.73,0-2.59,0c0.41,0.67,0.82,1.33,1.22,2c0.53,0.87,2.11,1.08,2.59,0
				c1.28-2.89,4.01-8.53,8.09-7.1C335.1,136.61,335.4,141.78,335.1,144.76c-0.08,0.81,0.75,1.5,1.5,1.5c0.88,0,1.42-0.69,1.5-1.5
				c0.45-4.47-0.76-10.65-5.63-12.24c-5.66-1.84-9.55,4.12-11.48,8.48c0.86,0,1.73,0,2.59,0c-0.41-0.67-0.82-1.33-1.22-2
				c-0.58-0.95-2.02-0.99-2.59,0c-2.46,4.24-1.97,10.14,1.63,13.61c3.42,3.3,9.16,3.52,12.89,0.62c2.65-2.06,3.45-5.28,3.81-8.46
				c0.09-0.81-0.75-1.5-1.5-1.5C335.72,143.26,335.19,143.95,335.1,144.76z"/>
		</g>
	</g>
	<g>
		<path class="st0" d="M418.25,133.65c6.54-8.99,13.84-17.43,21.79-25.2c7.11-6.94,15.16-13.57,24.86-15.72
			c9.7-2.16,21.33,1.51,25.43,10.56c5.31,11.73-3.74,24.6-12.08,34.41s-16.98,23.18-10.94,34.55c4.8,9.03,16.48,11.54,26.69,12.08
			c10.22,0.54,21.45,0.46,29.24,7.09c10.52,8.96,9.06,26.75,0.17,37.33s-22.83,15.37-36.33,18.29c-18.84,4.07-39.5,5.16-56.43-4.05
			c-20.1-10.93-30.8-34.93-30.23-57.81s10.87-44.56,24.31-63.07"/>
		<g>
			<path class="st0" d="M419.55,134.41c5.67-7.77,11.9-15.13,18.64-21.99c6.11-6.22,12.65-12.42,20.67-16.09
				c6.73-3.07,14.62-3.79,21.47-0.64c3.03,1.39,5.78,3.49,7.59,6.33c2.13,3.34,2.85,7.36,2.32,11.26
				c-1.16,8.51-6.91,16.04-12.26,22.43c-5.5,6.57-11.06,13.63-13.32,22.05c-2.03,7.56-0.27,15.68,5.9,20.82
				c5.64,4.7,13.16,6.35,20.31,7.03c7.98,0.75,16.17,0.24,23.87,2.81c7,2.34,12.13,7.58,13.78,14.81
				c1.54,6.73,0.12,14.09-3.19,20.08c-3.81,6.89-10.38,11.85-17.32,15.3c-7.47,3.72-15.67,5.87-23.82,7.49
				c-8.83,1.76-17.86,2.78-26.88,2.34c-8.76-0.43-17.54-2.34-25.33-6.46c-6.67-3.52-12.47-8.59-17-14.62
				c-9.2-12.24-13.57-27.82-13.03-43.05c0.64-18.04,7.47-35.28,16.78-50.54c2.28-3.74,4.73-7.37,7.3-10.92
				c1.13-1.57-1.47-3.06-2.59-1.51c-10.85,14.98-19.73,31.95-23.09,50.28c-3,16.39-1.21,33.42,6.46,48.34
				c3.58,6.95,8.43,13.33,14.42,18.37c6.57,5.53,14.39,9.29,22.73,11.28c8.96,2.13,18.31,2.32,27.44,1.43
				c8.93-0.88,17.9-2.6,26.48-5.25c15.25-4.72,30.58-14.26,33.66-31.11c1.27-6.93,0.43-14.57-3.74-20.44
				c-4.81-6.76-12.68-9.48-20.61-10.5c-8.05-1.04-16.26-0.45-24.18-2.46c-7.3-1.85-14.27-6.09-15.92-13.96
				c-1.8-8.58,3.54-17.28,8.43-23.86c2.69-3.62,5.75-6.94,8.46-10.54c2.74-3.64,5.23-7.49,7.02-11.69
				c3.24-7.62,3.47-16.44-2.2-22.99c-4.79-5.53-12.61-7.95-19.75-7.57c-8.7,0.46-16.53,5.05-23.13,10.44
				c-7.35,6-13.92,13.1-20.02,20.34c-3.12,3.71-6.11,7.53-8.97,11.45C415.82,134.46,418.42,135.96,419.55,134.41L419.55,134.41z"/>
		</g>
	</g>
	<g>
		<path class="st0" d="M560.24,115.63c-8.92,20.61-10.54,43.56-11.36,66.01c-0.36,9.7-0.55,19.66,2.72,28.8
			c3.27,9.14,10.78,17.39,20.39,18.72c6.21,0.86,12.5-1.22,18.04-4.17c8.41-4.47,15.87-11.23,19.74-19.93
			c3.11-6.98,3.77-14.8,3.76-22.44c-0.03-21.29-5.01-42.55-14.44-61.64c-2.87-5.82-6.3-11.61-11.55-15.43
			c-5.24-3.82-12.7-5.24-18.27-1.92c-5.21,3.11-7.52,9.32-9.47,15.06"/>
		<g>
			<path class="st0" d="M558.95,114.87c-9.05,21.05-10.74,44.14-11.57,66.77c-0.4,11.04-0.61,22.75,4.35,32.93
				c3.97,8.16,11.42,15.1,20.71,16.15c5.65,0.64,11.28-1.01,16.34-3.42c4.45-2.11,8.63-4.87,12.31-8.15
				c3.67-3.28,6.87-7.18,9.13-11.57c2.53-4.9,3.8-10.27,4.38-15.73c1.2-11.21,0.17-22.85-1.8-33.91c-2-11.21-5.38-22.15-9.99-32.56
				c-4.07-9.18-9.19-19.6-19.05-23.63c-4.41-1.8-9.49-2.1-13.89-0.12c-4.3,1.93-7.13,5.95-9.01,10.13
				c-0.96,2.13-1.74,4.32-2.49,6.53c-0.62,1.83,2.27,2.62,2.89,0.8c1.38-4.05,2.84-8.37,5.74-11.61c3-3.36,7.28-4.73,11.71-4.04
				c10.01,1.55,15.57,10.99,19.6,19.32c9.3,19.23,14.09,40.75,13.71,62.11c-0.09,5.26-0.59,10.54-2.13,15.6
				c-1.39,4.55-3.72,8.76-6.81,12.38c-2.98,3.49-6.53,6.45-10.41,8.89c-4.28,2.69-8.98,4.93-13.99,5.8
				c-9.23,1.61-17.45-3.34-22.37-10.95c-5.66-8.75-6.28-19.49-6.09-29.62c0.4-21.2,1.6-43.11,8.53-63.32
				c0.84-2.45,1.77-4.88,2.79-7.26C562.29,114.63,559.71,113.1,558.95,114.87L558.95,114.87z"/>
		</g>
	</g>
	<g>
		<path class="st0" d="M550.2,62.58c4.5-9.34,13.7-16.26,23.93-17.99c1.08-0.18,2.2-0.31,3.27-0.08c1.55,0.33,2.86,1.39,3.85,2.63
			c2.78,3.46,3.33,8.16,3.41,12.6c0.06,3.46-0.12,6.95-1.04,10.29c-0.77,2.82-2.06,5.48-3.56,8c-3.06,5.14-7.27,9.89-12.85,12.03
			c-5.59,2.13-12.71,0.98-16.25-3.84c-2.16-2.94-2.74-6.75-2.84-10.39c-0.14-5.18,0.63-10.59,3.55-14.87"/>
		<g>
			<path class="st0" d="M551.5,63.33c3.36-6.88,9.21-12.42,16.29-15.36c1.7-0.71,3.48-1.26,5.29-1.65c2.22-0.48,4.37-0.79,6.17,0.86
				c3.12,2.86,3.75,7.54,3.89,11.54c0.16,4.69-0.15,9.42-1.94,13.81c-1.59,3.89-3.97,7.66-6.85,10.73
				c-2.66,2.85-5.99,5.21-9.86,6.02c-3.35,0.71-7.06,0.2-9.95-1.7c-3.89-2.57-4.8-7.41-4.92-11.76c-0.14-4.92,0.58-9.94,3.34-14.11
				c1.07-1.61-1.53-3.12-2.59-1.51c-2.8,4.23-3.75,9.35-3.77,14.36c-0.01,4.63,0.63,9.6,3.72,13.26c2.67,3.16,6.86,4.68,10.92,4.76
				c4.43,0.09,8.6-1.62,12.06-4.31c3.7-2.88,6.57-6.74,8.82-10.82c2.65-4.8,3.91-9.88,4.03-15.35c0.11-4.78-0.12-10-2.59-14.23
				c-1.15-1.96-2.82-3.79-5.01-4.57c-2.34-0.84-5.02-0.21-7.36,0.39c-9.58,2.46-17.95,9.25-22.29,18.14
				C548.06,63.55,550.65,65.07,551.5,63.33L551.5,63.33z"/>
		</g>
	</g>
	<g>
		<path class="st0" d="M780.49,107.75c-0.76-2.8-1.72-5.64-3.63-7.84c-1.6-1.85-3.77-3.12-5.96-4.22
			c-12.52-6.28-27.29-7.96-40.9-4.64c-8.05,1.96-15.88,5.62-24.16,5.35c-11.7-0.37-22.05-8.52-33.74-9.06
			c-9.96-0.46-19.94,5.24-24.62,14.05c-2.2,4.15-3.26,8.8-4.29,13.38c-2.27,10.05-4.54,20.23-4.75,30.5l-0.08-6.06
			c-3.88,46.34-3.01,93.08,2.58,139.25c0.81,6.66,1.75,13.43,4.63,19.48s8.04,11.38,14.59,12.81c7.1,1.55,14.57-1.77,19.79-6.83
			c5.22-5.07,8.59-11.69,11.81-18.21c10.6-21.5,20.8-43.8,37.51-60.99c6.04-6.22,12.84-11.66,19-17.77
			c10.71-10.61,19.43-23.22,25.59-36.98C782.57,150.56,786.05,128.29,780.49,107.75z M732.46,158.59
			c-3.52,8.42-9.97,16.28-18.82,18.52c-1.73,0.44-3.57,0.65-5.28,0.16c-2.61-0.75-4.62-3.16-5.03-5.85
			c-0.41-2.68,0.7-5.52,2.73-7.33l-0.29,0.64c1.13-2.1,2.25-4.2,3.38-6.31c1.97-3.67,4.01-7.44,7.17-10.15
			c2.52-2.15,5.68-3.54,8.98-3.93c1.94-0.23,4.01-0.09,5.66,0.95c2.06,1.3,3.11,3.81,3.17,6.24S733.39,156.35,732.46,158.59z"/>
		<g>
			<path class="st0" d="M781.94,107.35c-0.84-3.05-1.91-6.08-4.01-8.5c-2.02-2.33-4.87-3.82-7.63-5.11
				c-5.95-2.79-12.28-4.58-18.79-5.39c-6.44-0.8-13-0.55-19.36,0.7c-6.64,1.3-12.92,4.02-19.57,5.28c-3.21,0.61-6.52,0.79-9.76,0.3
				c-3.02-0.46-5.95-1.36-8.82-2.39c-5.77-2.07-11.39-4.76-17.46-5.87c-11.34-2.08-23.19,2.82-29.4,12.65
				c-4.09,6.48-5.26,14.6-6.85,21.96c-1.72,7.99-3.14,16.09-3.34,24.28c1,0,2,0,3,0c-0.03-2.02-0.05-4.04-0.08-6.06
				c-0.02-1.96-2.84-1.9-3,0c-2.6,31.2-3.07,62.57-1.38,93.83c0.84,15.55,2.19,31.08,4.1,46.53c0.85,6.88,1.93,13.91,5.2,20.13
				c2.76,5.26,7.2,9.84,12.86,11.88c5.88,2.13,12.38,0.8,17.67-2.26c5.81-3.37,10.03-8.77,13.37-14.49c3.38-5.8,6.15-11.97,9.11-18
				c3.04-6.17,6.12-12.33,9.43-18.36c6.5-11.86,13.93-23.33,23.44-33.03c5.1-5.2,10.71-9.87,16-14.86
				c5.08-4.78,9.75-9.95,13.99-15.49c16.66-21.8,26.98-50.17,23.26-77.8C783.47,113.95,782.81,110.63,781.94,107.35
				c-0.5-1.86-3.39-1.07-2.89,0.8c7.11,26.58-0.85,55.11-15.51,77.7c-3.68,5.68-7.84,11.04-12.42,16.02
				c-4.73,5.14-9.98,9.74-15.16,14.43c-5.07,4.6-9.92,9.39-14.25,14.7c-4.12,5.06-7.84,10.42-11.27,15.96
				c-7,11.33-12.77,23.36-18.64,35.31c-5.39,10.97-11.62,24.64-25.02,27.11c-6.07,1.12-11.76-1.48-15.79-5.95
				c-4.33-4.8-6.3-11.13-7.44-17.38c-1.31-7.19-1.94-14.53-2.66-21.8c-0.75-7.52-1.38-15.06-1.88-22.6
				c-2.02-30.33-2.01-60.8,0.02-91.13c0.25-3.77,0.54-7.54,0.85-11.31c-1,0-2,0-3,0c0.03,2.02,0.05,4.04,0.08,6.06
				c0.02,1.93,2.95,1.93,3,0c0.17-6.96,1.25-13.83,2.64-20.64c0.71-3.46,1.48-6.9,2.26-10.35c0.7-3.1,1.44-6.21,2.6-9.19
				c4.02-10.39,14.76-17.17,25.88-16.16c11.79,1.06,21.81,9.18,33.87,8.98c6.5-0.11,12.68-2.37,18.83-4.21
				c6.07-1.82,12.22-2.87,18.57-2.81c6.95,0.07,13.86,1.37,20.36,3.82c3.16,1.19,6.56,2.6,9.23,4.71c2.77,2.2,3.96,5.42,4.86,8.73
				C779.55,110.01,782.45,109.22,781.94,107.35z"/>
			<path class="st0" d="M731.16,157.84c-2.78,6.58-7.2,12.87-13.68,16.23c-3.05,1.58-7.7,3.25-10.66,0.71
				c-3.05-2.61-2.45-7.04,0.29-9.61c-0.79-0.61-1.57-1.21-2.36-1.82c-0.1,0.21-0.19,0.43-0.29,0.64c-0.77,1.72,1.66,3.25,2.59,1.51
				c1.91-3.57,3.71-7.23,5.84-10.68c1.99-3.23,4.49-6.07,7.99-7.69c2.96-1.36,7.94-2.52,10.35,0.43c2.51,3.08,1.12,7.39-0.22,10.64
				c-0.73,1.78,2.17,2.56,2.89,0.8c1.36-3.3,2.39-7.04,1.16-10.54c-1.12-3.2-3.68-5.25-7.06-5.62c-7.22-0.79-13.55,4-17.26,9.76
				c-2.35,3.63-4.24,7.58-6.28,11.39c0.86,0.5,1.73,1.01,2.59,1.51c0.1-0.21,0.19-0.43,0.29-0.64c0.67-1.5-1.04-3.05-2.36-1.82
				c-2.61,2.45-3.97,6.32-2.87,9.82c1.04,3.3,3.87,5.75,7.32,6.13c3.59,0.39,7.44-1.08,10.51-2.86c2.97-1.72,5.58-4.06,7.76-6.7
				c2.51-3.05,4.51-6.45,6.04-10.08c0.32-0.75,0.22-1.6-0.54-2.05C732.59,156.92,731.48,157.09,731.16,157.84z"/>
		</g>
	</g>
	<g>
		<path class="st0" d="M921.26,208.44c-2.93-8.36-10.28-14.37-17.93-18.82c-7.65-4.46-15.97-7.86-22.93-13.33
			c-2.65-2.08-5.25-4.86-5.21-8.23c0.06-4.73,5.02-7.61,9.14-9.92c15.3-8.57,28.04-23.14,30.79-40.46s-6.57-36.84-23.15-42.56
			c-3.58-1.23-7.35-1.83-11.13-2.06c-16.67-1.01-33.43,5.14-46.35,15.72s-22.11,25.35-27.19,41.26l-0.96-1.65
			c-3.29,12.54-6.5,25.19-7.3,38.13s0.94,26.31,7.09,37.73c4.22,7.84,10.37,14.5,17.12,20.31c14.49,12.47,32.36,21.42,51.36,23.47
			c12.12,1.3,25.05-0.43,34.93-7.57C919.41,233.32,925.29,219.94,921.26,208.44z M868.94,130.84c-1.03,3.86-4.6,6.56-8.35,7.94
			c-1.54,0.57-3.27,0.95-4.8,0.36c-1.87-0.73-2.96-2.78-3.12-4.78c-0.17-2,0.41-3.98,0.99-5.9l0.93,2.51
			c0.81-2.09,1.64-4.22,3.05-5.96s3.52-3.07,5.76-2.99C867.37,122.17,869.97,126.98,868.94,130.84z"/>
		<g>
			<path class="st0" d="M922.71,208.04c-3.41-9.48-11.66-15.83-20.16-20.6c-4.77-2.67-9.72-5.01-14.44-7.78
				c-2.41-1.41-4.79-2.93-6.96-4.69c-1.82-1.47-3.72-3.28-4.31-5.63c-1.12-4.46,3.83-7.4,7.05-9.25c4.05-2.33,7.94-4.79,11.57-7.74
				c7.31-5.94,13.55-13.47,17.41-22.1c3.68-8.25,5.1-17.2,3.57-26.14c-1.43-8.33-5.33-16.39-11.32-22.4
				c-2.92-2.93-6.38-5.38-10.17-7.04c-5.1-2.23-10.67-3.08-16.2-3.21c-10.37-0.26-20.7,2.19-30.06,6.59
				c-18.76,8.81-32.53,25.52-40.26,44.49c-0.95,2.33-1.8,4.7-2.57,7.09c0.91-0.12,1.83-0.24,2.74-0.36
				c-0.32-0.55-0.64-1.1-0.96-1.65c-0.64-1.1-2.41-0.9-2.74,0.36c-4.4,16.82-8.76,34.15-7.23,51.67c0.7,8.09,2.61,16.08,6.17,23.4
				c3.44,7.07,8.47,13.27,14.11,18.7c11.23,10.81,24.9,19.39,39.77,24.17c14.38,4.63,30.95,6.07,45.13,0
				c6.64-2.84,12.36-7.42,16.25-13.54c3.62-5.7,5.6-12.64,4.75-19.4C923.63,211.31,923.26,209.66,922.71,208.04
				c-0.62-1.82-3.52-1.04-2.89,0.8c4.41,12.93-3.67,26.65-15.01,32.84c-12.91,7.04-28.93,6.23-42.7,2.45
				c-14.37-3.95-27.61-11.63-38.76-21.45c-5.63-4.95-10.8-10.52-14.67-16.97c-4.01-6.68-6.4-14.18-7.53-21.87
				c-2.44-16.47,1.02-33.08,5.08-49c0.51-2.02,1.04-4.03,1.57-6.05c-0.91,0.12-1.83,0.24-2.74,0.36c0.32,0.55,0.64,1.1,0.96,1.65
				c0.67,1.15,2.35,0.85,2.74-0.36c6.08-18.89,18.05-36.26,35.3-46.53c8.74-5.2,18.66-8.56,28.82-9.3
				c9.69-0.7,19.93,0.64,27.65,6.98c6.39,5.26,10.64,12.78,12.51,20.79c1.97,8.4,1.03,17.03-2.18,24.99
				c-3.44,8.54-9.37,15.95-16.34,21.88c-3.48,2.96-7.26,5.5-11.24,7.74c-3.56,2.01-7.66,4.37-9.13,8.44
				c-1.67,4.63,1.44,8.87,4.88,11.66c4.16,3.37,8.85,5.98,13.58,8.46c8.63,4.54,18.12,8.99,23.96,17.16
				c1.35,1.89,2.46,3.93,3.25,6.11C920.46,210.64,923.36,209.86,922.71,208.04z"/>
			<path class="st0" d="M867.49,130.44c-1.07,3.79-4.9,6.35-8.56,7.28c-1.94,0.5-3.66-0.04-4.43-1.99
				c-0.88-2.23-0.05-4.71,0.59-6.88c-0.96,0-1.93,0-2.89,0c0.31,0.84,0.62,1.67,0.93,2.51c0.53,1.44,2.35,1.4,2.89,0
				c0.77-1.99,1.56-4.11,3.01-5.71c1.16-1.28,2.88-2.39,4.69-2.1C866.72,124.01,868.15,127.79,867.49,130.44
				c-0.47,1.87,2.43,2.67,2.89,0.8c1.05-4.24-1.27-9.66-5.86-10.59c-2.67-0.54-5.34,0.63-7.23,2.48c-2.07,2.03-3.14,4.78-4.16,7.43
				c0.96,0,1.93,0,2.89,0c-0.31-0.84-0.62-1.67-0.93-2.51c-0.5-1.35-2.45-1.49-2.89,0c-0.85,2.85-1.64,5.94-0.46,8.82
				c1.16,2.83,3.73,4.39,6.78,3.98c2.65-0.36,5.29-1.67,7.39-3.29c2.1-1.62,3.74-3.74,4.46-6.32
				C870.91,129.38,868.01,128.58,867.49,130.44z"/>
		</g>
	</g>
	<g>
		<path class="st0" d="M957.88,98.5c23.14-27.77,62.02-41.43,97.45-34.24c1.95,0.4,3.93,0.87,5.59,1.97
			c4.52,3.01,4.96,9.86,2.41,14.65s-7.24,8-11.79,10.98c-4.54,2.98-9.28,6.09-11.98,10.8c-0.34,0.59-0.66,1.24-0.64,1.92
			c0.03,1.95,2.4,2.83,4.3,3.23c6.83,1.41,13.75,3.1,19.67,6.79s10.76,9.74,11.33,16.69c0.35,4.22-0.89,8.45-2.76,12.25
			c-2.7,5.47-6.69,10.18-10.68,14.78c-12.84,14.79-26.32,29.23-42.22,40.66c-15.9,11.43-34.48,19.78-54.02,21.1
			c-4.02,0.27-8.27,0.19-11.75-1.83c-6.27-3.63-7.75-12.45-5.4-19.3c2.34-6.85,7.52-12.28,12.27-17.75
			c6.49-7.47,12.43-15.41,17.76-23.75c0.89-1.4,1.8-2.9,1.81-4.55c0.03-2.96-2.87-5.25-5.78-5.77c-2.92-0.51-5.89,0.24-8.82,0.66
			c-6.83,0.98-14.37-0.1-19.43-4.8c-6.82-6.34-7.01-17.53-2.97-25.92s11.38-14.65,18.51-20.64"/>
		<g>
			<path class="st0" d="M958.94,99.56c10.58-12.65,24.41-22.42,39.74-28.46c15.27-6.02,31.93-8.45,48.26-6.65
				c2.05,0.23,4.1,0.53,6.13,0.9c2.12,0.39,4.43,0.71,6.35,1.74c3.21,1.72,4.28,5.49,3.87,8.92c-1.04,8.69-10.55,12.95-16.82,17.48
				c-3.34,2.41-7.02,5.43-8.67,9.33c-0.8,1.9-0.22,3.8,1.42,5c1.54,1.12,3.48,1.41,5.3,1.8c8.83,1.9,18.14,4.64,24.05,11.95
				c2.63,3.26,4.29,7.3,4.2,11.53c-0.11,5.03-2.36,9.78-5.04,13.93c-2.64,4.09-5.86,7.75-9.05,11.41c-3.2,3.67-6.43,7.3-9.74,10.87
				c-13.16,14.22-27.61,27.55-44.69,36.93c-8.21,4.51-16.96,8.08-26.09,10.24c-4.61,1.09-9.31,1.83-14.05,2.12
				c-4.2,0.25-8.97,0.14-12.25-2.87c-5.85-5.34-4.55-14.53-1.06-20.74c2.24-3.98,5.25-7.42,8.24-10.84
				c3.29-3.75,6.48-7.57,9.53-11.53c3.06-3.98,5.98-8.08,8.74-12.28c1.26-1.92,2.83-3.93,3.27-6.24c0.38-1.98-0.2-3.91-1.49-5.44
				c-3.16-3.75-8.19-3.41-12.56-2.7c-4.29,0.7-8.58,0.99-12.83-0.12c-3.87-1.01-7.45-3.15-9.69-6.53c-2.13-3.2-3-7.02-2.97-10.83
				c0.08-8.66,4.89-16.03,10.77-22.03c3.13-3.2,6.56-6.09,9.98-8.97c1.48-1.24-0.65-3.36-2.12-2.12
				c-7.15,6.01-14.62,12.35-18.75,20.94c-3.42,7.12-4.16,16.09-0.3,23.2c4.22,7.79,13.29,10.64,21.69,10.02
				c4.33-0.32,10.17-2.72,13.92,0.49c1.87,1.6,1.67,3.6,0.53,5.59c-1.28,2.23-2.79,4.36-4.24,6.48c-2.94,4.29-6.05,8.48-9.32,12.52
				c-3.14,3.88-6.53,7.54-9.7,11.39c-5.47,6.63-10.02,14.47-8.28,23.36c0.73,3.71,2.63,7.16,5.7,9.43c3.76,2.78,8.69,3.06,13.2,2.79
				c9.59-0.58,19.05-2.86,27.98-6.36c18.58-7.28,34.64-19.47,48.81-33.33c7.22-7.07,14-14.57,20.63-22.19
				c6.43-7.4,13.76-15.87,14.22-26.17c0.41-9.04-5.89-16.78-13.42-21.02c-4.29-2.41-9.04-3.93-13.81-5.08
				c-2.12-0.51-4.42-0.75-6.46-1.51c-0.57-0.21-1.52-0.58-1.64-1.27c-0.15-0.9,1-2.23,1.5-2.91c5.43-7.35,15.08-10.01,20.74-17.18
				c2.45-3.11,3.95-6.87,3.68-10.88c-0.25-3.82-2.08-7.5-5.6-9.3c-2.09-1.06-4.41-1.49-6.7-1.91c-2.05-0.38-4.11-0.68-6.18-0.93
				c-4.24-0.51-8.51-0.74-12.79-0.69c-8.55,0.1-17.1,1.29-25.37,3.46c-16.41,4.32-31.83,12.58-44.32,24.1
				c-3.05,2.81-5.91,5.83-8.58,9.01C955.59,98.91,957.7,101.04,958.94,99.56L958.94,99.56z"/>
		</g>
	</g>
	<g>
		<g>
			<path class="st0" d="M48.54,114.8c4.3-12.25,12.25-22.74,20-32.99c1.16-1.54-1.44-3.04-2.59-1.51
				c-7.92,10.49-15.9,21.18-20.3,33.71C45,115.83,47.9,116.62,48.54,114.8L48.54,114.8z"/>
		</g>
	</g>
	<g>
		<g>
			<path class="st0" d="M46.26,116.32c2.95-3.55,5.56-7.37,7.74-11.45c0.35-0.66,0.22-1.48-0.39-1.93
				c-0.55-0.41-1.49-0.47-1.97,0.12c-2.78,3.39-4.94,7.18-6.43,11.3c-0.28,0.76,0.31,1.64,1.05,1.85c0.83,0.23,1.57-0.28,1.85-1.05
				c1.31-3.61,3.23-7.01,5.66-9.98c-0.79-0.61-1.57-1.21-2.36-1.82c-2.06,3.84-4.48,7.49-7.27,10.84c-0.52,0.62-0.61,1.51,0,2.12
				C44.67,116.86,45.74,116.95,46.26,116.32L46.26,116.32z"/>
		</g>
	</g>
	<g>
		<g>
			<path class="st0" d="M141.67,101.54c-2.28,4.88-3.23,10.95,0.36,15.47c3.13,3.94,8.52,4.97,13.25,5.44
				c0.81,0.08,1.5-0.75,1.5-1.5c0-0.88-0.69-1.42-1.5-1.5c-3.79-0.38-8.16-1.16-10.79-4.17c-2.97-3.38-1.95-8.53-0.22-12.23
				c0.34-0.73,0.21-1.62-0.54-2.05C143.07,100.62,142.01,100.8,141.67,101.54L141.67,101.54z"/>
		</g>
	</g>
	<g>
		<g>
			<path class="st0" d="M320.43,140.35c-0.97,4.03-0.59,8.59,2,11.96c2.39,3.11,6.43,4.84,10.3,3.9c1.88-0.46,1.08-3.35-0.8-2.89
				c-2.7,0.66-5.62-0.73-7.22-2.93c-1.92-2.65-2.15-6.15-1.4-9.25C323.77,139.27,320.88,138.47,320.43,140.35L320.43,140.35z"/>
		</g>
	</g>
	<g>
		<g>
			<path class="st0" d="M426.58,123.16c0.54-1.4,2.25-2.15,3.44-2.88c1.49-0.91,2.97-1.95,3.77-3.56c0.86-1.75-1.48-3.09-2.59-1.51
				c-0.96,1.36-2.31,2.47-3.85,3.11c0.49,0.84,0.97,1.67,1.46,2.51c5.2-5.88,10.7-12.16,18.13-15.22c0.75-0.31,1.27-0.99,1.05-1.85
				c-0.19-0.71-1.1-1.36-1.85-1.05c-7.99,3.29-13.85,9.65-19.46,15.99c-0.88,1-0.05,3.14,1.46,2.51c2.32-0.97,4.19-2.43,5.64-4.49
				c-0.86-0.5-1.73-1.01-2.59-1.51c-0.77,1.55-2.4,2.28-3.8,3.15c-1.64,1.01-3,2.18-3.71,4
				C422.99,124.17,425.89,124.95,426.58,123.16L426.58,123.16z"/>
		</g>
	</g>
	<g>
		<g>
			<path class="st0" d="M426.87,122.76c0.81-1.13,1.77-2.11,2.85-2.98c-0.79-0.61-1.57-1.21-2.36-1.82
				c-0.52,0.88-1.2,1.44-2.13,1.86c0.61,0.79,1.21,1.57,1.82,2.36c2.74-3.22,5.48-6.45,8.22-9.67c2.54-2.98,5.08-5.98,8.04-8.56
				c5.3-4.61,11.91-7.64,18.81-8.9c3.88-0.71,7.85-0.79,11.76-0.32c1.91,0.23,1.9-2.77,0-3c-7.24-0.86-14.65,0.25-21.36,3.07
				c-7.22,3.04-12.84,7.98-17.9,13.86c-3.25,3.78-6.46,7.6-9.69,11.4c-1.13,1.33,0.26,3.07,1.82,2.36c1.37-0.62,2.44-1.65,3.21-2.94
				c0.92-1.55-1.1-2.85-2.36-1.82c-1.28,1.05-2.36,2.25-3.32,3.59C423.16,122.82,425.76,124.32,426.87,122.76L426.87,122.76z"/>
		</g>
	</g>
	<g>
		<g>
			<path class="st0" d="M704.71,164.14c-0.87,3.17-1.69,6.76-0.38,9.93c1.36,3.29,4.56,4.7,7.7,5.84c0.76,0.28,1.64-0.31,1.85-1.05
				c0.23-0.84-0.28-1.57-1.05-1.85c-2.23-0.81-4.9-1.79-5.8-4.22c-0.92-2.52-0.12-5.39,0.57-7.87
				C708.12,163.07,705.23,162.28,704.71,164.14L704.71,164.14z"/>
		</g>
	</g>
	<g>
		<g>
			<path class="st0" d="M808.39,128.97c1.86-6,3.92-11.79,7.56-16.97c3.27-4.65,7.5-8.6,12.31-11.61c1.63-1.02,0.13-3.62-1.51-2.59
				c-5.16,3.23-9.61,7.42-13.16,12.36c-3.92,5.46-6.12,11.65-8.1,18.01C804.92,130.02,807.82,130.81,808.39,128.97L808.39,128.97z"
				/>
		</g>
	</g>
	<g>
		<g>
			<path class="st0" d="M852.31,129.59c-0.65,3.4,1.2,6.55,3.98,8.43c2.98,2.01,6.81,2.19,10.28,2.34c0.81,0.04,1.5-0.71,1.5-1.5
				c0-0.84-0.69-1.46-1.5-1.5c-2.78-0.12-5.81-0.2-8.28-1.63c-0.97-0.56-1.82-1.35-2.41-2.31c-0.58-0.95-0.88-2.03-0.68-3.03
				c0.15-0.79-0.22-1.62-1.05-1.85C853.42,128.34,852.46,128.79,852.31,129.59L852.31,129.59z"/>
		</g>
	</g>
</g>
</svg>
