<?xml version="1.0" encoding="utf-8"?>
<!-- Generator: Adobe Illustrator 28.1.0, SVG Export Plug-In . SVG Version: 6.00 Build 0)  -->
<svg version="1.1" id="Layer_1" xmlns="http://www.w3.org/2000/svg" xmlns:xlink="http://www.w3.org/1999/xlink" x="0px" y="0px"
	 viewBox="0 0 426.8 307.3" style="enable-background:new 0 0 426.8 307.3;" xml:space="preserve">
<style type="text/css">
	.st0{fill:#202675;}
</style>
<path class="st0" d="M111.3,129.5c-2.6-1.6-8-4.3-24.2-3.1c-18.3,1.4-20.4,5.4-36.6,7c-11.6,1.1-22.2,2.2-32.7-3.9
	C15.8,128.3,5.2,122,1.4,110c-5-15.8,4.8-31.2,10.9-40.5C38.1,30.2,82.4,16.8,117.5,6.3C135.9,0.8,151.4-2,169,1.6
	c7.3,1.5,21.9,4.5,32.7,15.6c12.1,12.4,13.8,29.1,14,52.2c0.3,31.6-2.3,60-16.4,136.4c-4.2,23-7.4,38.6-18.7,56.1
	c-4.9,7.5-15.3,23.2-35.9,34.3c-21.9,11.8-42.3,11.2-48.3,10.9c-6.7-0.4-28.3-2.3-49.1-17.9c-10.3-7.7-27.3-20.5-28.1-40.5
	c-0.1-3-0.7-14.5,7-24.2c9.2-11.7,24.1-12.8,29.6-13.2c11.9-0.9,22.3,2.7,28.1,4.7c10.3,3.6,13,6.7,21,7c2.8,0.1,12.3,0.4,18.7-5.5
	c5.7-5.2,5.9-12.9,6.2-28.1c0.3-13,0.4-26.5-6.2-42.1C120.4,139.5,117.8,133.5,111.3,129.5z"/>
<g>
	<path class="st0" d="M235,95.7c1.4-10.2,3.1-20.7,8.4-29.5c5.3-8.8,15.1-15.8,25.3-14.6c2.8,0.3,5.5,1.2,7.5,3.2
		c2,2,2.8,4.8,3.4,7.6c1.3,5.4,2,10.9,2.3,16.5c0.2,4,1.1,9.4,5.1,9.9c2.7,0.4,4.9-1.8,6.7-3.8c16.8-18.6,33.5-37.5,51.9-54.6
		c11-10.3,24.8-20.6,39.7-18.1c2.5,0.4,5,1.2,7,2.8c1.8,1.5,3.1,3.6,4,5.8c5.9,13.4,1.5,29.1-5.3,42.1s-16,24.8-20.5,38.7
		c-0.8,2.6-1.5,5.4-1.1,8.1c1,6.6,7.6,10.5,13.3,13.9c10.5,6.4,20.1,14.3,28.3,23.5c7,7.8,13.2,17,14.1,27.4
		c0.9,10.4-5.2,22-15.5,24.2c-5.3,1.1-10.8-0.3-16.1-1.7c-21-5.7-42-11.5-63-17.2c-2.1-0.6-4.2-1.1-6.4-1c-3.2,0.3-5.9,2.2-8.5,4.1
		c-13.2,9.9-24.8,21.9-34.2,35.4c-4.5,6.5-8.7,13.5-14.7,18.8c-6,5.2-14.4,8.6-22,6.1c-6.3-2-10.8-7.6-13.2-13.8
		c-2.4-6.1-2.9-12.8-3.4-19.4c-3.2-41.4-6.2-84.2,7-123.6"/>
	<g>
		<path class="st0" d="M236.5,96.1c1.8-12.7,4-26.7,13.7-36c4.1-3.9,9.5-6.8,15.2-7.1c3-0.2,6.4,0.2,8.9,2.1c2.5,1.9,3.4,5.2,4,8.1
			c0.8,3.6,1.4,7.2,1.8,10.9c0.3,3,0.2,6,0.8,9c0.5,2.3,1.4,4.7,3.3,6.1c2.3,1.7,5.3,1.2,7.6-0.4c2.8-2,4.9-4.9,7.2-7.4
			c2.5-2.7,4.9-5.4,7.3-8.1c4.9-5.4,9.8-10.8,14.8-16.2c5-5.4,10.2-10.7,15.4-15.9c5-5,10.1-10,15.5-14.5
			c9.3-7.9,21.9-15.9,34.7-12.6c3.4,0.9,5.8,2.9,7.5,6c1.5,2.8,2.4,6,2.9,9.2c1,6.5,0,13.1-1.8,19.3c-3.9,13-12,24.1-18.5,35.8
			c-3.2,5.8-6.3,11.8-8.1,18.2c-0.9,3.1-1.3,6.4-0.2,9.5c0.9,2.6,2.6,4.9,4.7,6.7c4.4,4,9.9,6.6,14.8,10c5.6,3.8,10.8,8.1,15.7,12.8
			c9,8.6,18.7,19.5,20,32.5c1,10.2-5,22.4-16.2,23.4c-3.6,0.3-7.2-0.4-10.7-1.3c-3.7-0.9-7.3-2-10.9-3c-7.4-2-14.8-4-22.1-6
			c-7.5-2.1-15.1-4.1-22.6-6.2c-3.7-1-7.3-2-11-3c-3.3-0.9-6.6-1.1-9.8,0.3c-3,1.3-5.5,3.4-8,5.3c-2.6,2-5.2,4.2-7.7,6.4
			c-5.1,4.5-9.9,9.4-14.3,14.5c-4.3,5-8.3,10.3-12,15.8c-3.7,5.4-7.3,11-12.2,15.4c-4.6,4.1-10.7,7.1-17,6.8
			c-5.9-0.4-10.8-4.2-13.8-9.1c-3.6-5.7-4.6-12.6-5.2-19.2c-0.7-7.2-1.1-14.5-1.6-21.8c-1.9-28.5-2.8-57.4,2.9-85.5
			c1.4-6.8,3.2-13.5,5.4-20c0.6-1.8-2.3-2.6-2.9-0.8c-9.4,28-10.7,57.8-9.5,87c0.3,7.4,0.8,14.8,1.3,22.1c0.5,7.3,0.9,14.7,1.7,22
			c0.8,6.6,2.2,13.4,6.2,19c3.5,5,8.6,8.7,14.8,9.3c6.2,0.6,12.5-1.9,17.4-5.5c5.4-4,9.4-9.6,13.2-15.1c3.8-5.6,7.7-11.2,12.1-16.4
			c4.5-5.3,9.3-10.3,14.4-15c2.5-2.2,5-4.4,7.6-6.5c2.6-2.1,5.3-4.5,8.4-5.8c3.6-1.6,7.1-0.3,10.7,0.6c3.8,1,7.7,2.1,11.5,3.1
			c15.2,4.2,30.5,8.3,45.7,12.5c6.8,1.9,14.2,4.5,21.3,2.6c5.2-1.4,9.5-5.1,12.2-9.7c2.7-4.6,4.1-10.1,3.7-15.4
			c-0.4-6.5-3-12.8-6.4-18.3c-3.5-5.6-7.9-10.6-12.6-15.3c-5-5-10.3-9.5-16-13.6c-2.7-2-5.5-3.8-8.4-5.5c-2.5-1.5-5-3-7.2-4.8
			c-2-1.7-4-3.8-4.8-6.4c-1.1-3.4,0-6.9,1.1-10.2c4.5-13.1,13-24.2,19.5-36.4c6.2-11.7,10.8-25.6,7.6-38.8c-0.8-3.1-1.9-6.4-3.8-9
			c-1.9-2.7-4.7-4.5-7.9-5.4c-6.3-1.7-13.1-0.8-19.1,1.5c-12.9,5-23.1,15.3-32.7,24.8c-10.8,10.6-21,21.7-31.1,32.9
			c-2.6,2.8-5.1,5.7-7.7,8.5c-1.2,1.3-2.3,2.6-3.5,3.9c-1.1,1.2-2.2,2.6-3.5,3.5c-2.3,1.6-4.6,0.9-5.7-1.6c-1.1-2.6-1-5.5-1.2-8.2
			c-0.3-3.8-0.8-7.5-1.5-11.2c-0.6-3.1-1.2-6.5-2.9-9.3c-3.3-5.7-10.6-6.7-16.5-5.6c-12.7,2.3-21.1,13.7-24.9,25.3
			c-2.1,6.4-3.1,13-4,19.6c-0.1,0.8,0.2,1.6,1,1.9C235.3,97.3,236.3,96.9,236.5,96.1L236.5,96.1z"/>
	</g>
</g>
<g>
	<g>
		<path class="st0" d="M236.2,87.3c0.9-5.2,3.3-10,5.7-14.7c0.9-1.7-1.7-3.2-2.6-1.5c-2.5,4.9-5,9.9-6,15.4c-0.1,0.8,0.2,1.6,1,1.9
			C235.1,88.5,236.1,88.1,236.2,87.3L236.2,87.3z"/>
	</g>
</g>
</svg>
